<svg width="24" height="25" viewBox="0 0 24 25" fill="none" xmlns="http://www.w3.org/2000/svg">
<path d="M12 2.375C8.13 2.375 5 5.505 5 9.375C5 14.625 12 22.375 12 22.375C12 22.375 19 14.625 19 9.375C19 5.505 15.87 2.375 12 2.375ZM7 9.375C7 6.615 9.24 4.375 12 4.375C14.76 4.375 17 6.615 17 9.375C17 12.255 14.12 16.565 12 19.255C9.92 16.585 7 12.225 7 9.375Z" fill="#FF7733"/>
<path d="M12 11.875C13.3807 11.875 14.5 10.7557 14.5 9.375C14.5 7.99429 13.3807 6.875 12 6.875C10.6193 6.875 9.5 7.99429 9.5 9.375C9.5 10.7557 10.6193 11.875 12 11.875Z" fill="#FF7733"/>
</svg>
