<svg width="56" height="56" viewBox="0 0 56 56" fill="none" xmlns="http://www.w3.org/2000/svg">
<rect width="56" height="56" rx="28" fill="#17345F"/>
<path d="M13 28C13.0008 24.7114 14.0822 21.5142 16.078 18.9004C18.0737 16.2866 20.8732 14.4011 24.0454 13.5341C27.2177 12.6671 30.5869 12.8666 33.6347 14.102C36.6825 15.3373 39.2398 17.54 40.9131 20.3711C42.5864 23.2022 43.283 26.5047 42.8956 29.7704C42.5082 33.0361 41.0583 36.084 38.7691 38.445C36.4799 40.806 33.4782 42.3493 30.226 42.8373C26.9738 43.3254 23.6514 42.7311 20.77 41.146L14.938 42.922C14.6779 43.0012 14.4011 43.0083 14.1373 42.9423C13.8735 42.8764 13.6325 42.74 13.4403 42.5477C13.248 42.3555 13.1116 42.1145 13.0457 41.8507C12.9797 41.5869 12.9868 41.3101 13.066 41.05L14.842 35.209C13.6299 32.9998 12.9962 30.5199 13 28ZM22 26.5C22 26.8978 22.1581 27.2793 22.4394 27.5606C22.7207 27.842 23.1022 28 23.5 28H32.5C32.8978 28 33.2794 27.842 33.5607 27.5606C33.842 27.2793 34 26.8978 34 26.5C34 26.1022 33.842 25.7206 33.5607 25.4393C33.2794 25.158 32.8978 25 32.5 25H23.5C23.1022 25 22.7207 25.158 22.4394 25.4393C22.1581 25.7206 22 26.1022 22 26.5ZM23.5 31C23.1022 31 22.7207 31.158 22.4394 31.4393C22.1581 31.7206 22 32.1022 22 32.5C22 32.8978 22.1581 33.2793 22.4394 33.5606C22.7207 33.842 23.1022 34 23.5 34H29.5C29.8978 34 30.2794 33.842 30.5607 33.5606C30.842 33.2793 31 32.8978 31 32.5C31 32.1022 30.842 31.7206 30.5607 31.4393C30.2794 31.158 29.8978 31 29.5 31H23.5Z" fill="white"/>
</svg>
