<svg width="15" height="14" viewBox="0 0 15 14" fill="none" xmlns="http://www.w3.org/2000/svg">
<path fill-rule="evenodd" clip-rule="evenodd" d="M5.25 7.75C5.64782 7.75 6.02936 7.90804 6.31066 8.18934C6.59196 8.47064 6.75 8.85218 6.75 9.25V12.25C6.75 12.6478 6.59196 13.0294 6.31066 13.3107C6.02936 13.592 5.64782 13.75 5.25 13.75H2.25C1.85218 13.75 1.47064 13.592 1.18934 13.3107C0.908035 13.0294 0.75 12.6478 0.75 12.25V9.25C0.75 8.85218 0.908035 8.47064 1.18934 8.18934C1.47064 7.90804 1.85218 7.75 2.25 7.75H5.25ZM12.75 7.75C13.1478 7.75 13.5294 7.90804 13.8107 8.18934C14.092 8.47064 14.25 8.85218 14.25 9.25V12.25C14.25 12.6478 14.092 13.0294 13.8107 13.3107C13.5294 13.592 13.1478 13.75 12.75 13.75H9.75C9.35218 13.75 8.97064 13.592 8.68934 13.3107C8.40804 13.0294 8.25 12.6478 8.25 12.25V9.25C8.25 8.85218 8.40804 8.47064 8.68934 8.18934C8.97064 7.90804 9.35218 7.75 9.75 7.75H12.75ZM5.25 0.25C5.64782 0.25 6.02936 0.408035 6.31066 0.68934C6.59196 0.970644 6.75 1.35218 6.75 1.75V4.75C6.75 5.14782 6.59196 5.52936 6.31066 5.81066C6.02936 6.09196 5.64782 6.25 5.25 6.25H2.25C1.85218 6.25 1.47064 6.09196 1.18934 5.81066C0.908035 5.52936 0.75 5.14782 0.75 4.75V1.75C0.75 1.35218 0.908035 0.970644 1.18934 0.68934C1.47064 0.408035 1.85218 0.25 2.25 0.25H5.25ZM12.75 0.25C13.1478 0.25 13.5294 0.408035 13.8107 0.68934C14.092 0.970644 14.25 1.35218 14.25 1.75V4.75C14.25 5.14782 14.092 5.52936 13.8107 5.81066C13.5294 6.09196 13.1478 6.25 12.75 6.25H9.75C9.35218 6.25 8.97064 6.09196 8.68934 5.81066C8.40804 5.52936 8.25 5.14782 8.25 4.75V1.75C8.25 1.35218 8.40804 0.970644 8.68934 0.68934C8.97064 0.408035 9.35218 0.25 9.75 0.25H12.75Z" fill="black"/>
</svg>
