<svg width="134" height="133" viewBox="0 0 134 133" fill="none" xmlns="http://www.w3.org/2000/svg">
<g clip-path="url(#clip0_1934_8376)">
<path d="M19.1283 57.276C18.2708 57.2608 16.3866 58.5423 16.539 59.9374C16.6914 61.3339 18.7183 65.4929 19.6271 65.0468C20.5345 64.6007 20.493 57.301 19.1283 57.276Z" fill="#C07763"/>
<path d="M15.8488 49.6589L15.6895 49.8501L25.3361 74.1711L25.5037 73.9979L15.8488 49.6589Z" fill="#2C3A49"/>
<path d="M44.3619 69.2736L25.5036 73.9979L15.8486 49.6589L34.8856 45.2712L44.3619 69.2736Z" fill="#17345F"/>
<path d="M25.3359 74.1711L44.258 69.4496L44.3619 69.2737L25.5036 73.998L25.3359 74.1711Z" fill="#17345F"/>
<path d="M43.2069 68.5587L26.0984 72.8978L17.2539 50.2019L34.4303 46.1995L43.2069 68.5587Z" fill="#F2F1F2"/>
<path d="M22.588 53.5339L22.2458 53.6171L22.0768 53.6586L20.4697 54.0507L21.2885 55.9515L23.3071 55.3765L22.588 53.5339ZM22.214 55.5968L21.3398 55.8448L20.5944 54.1144L22.0685 53.7542L22.2528 53.7085L22.5354 53.6406L23.1907 55.3184L22.2292 55.5927L22.214 55.5968Z" fill="#17345F"/>
<path d="M24.4122 58.1958L24.113 58.2678L23.937 58.3094L22.2939 58.7098L23.1141 60.6106L25.1576 60.055L24.4122 58.1958ZM22.4172 58.7735L23.9246 58.405L24.1172 58.3593L24.3568 58.2997L25.0371 59.9955L23.1626 60.5053L22.4172 58.7735Z" fill="#17345F"/>
<path d="M26.2355 62.855L24.1172 63.3704L24.9374 65.2725L26.9808 64.7156L26.2355 62.855ZM24.2405 63.4327L26.1801 62.9589L26.8603 64.6546L24.9858 65.1617L24.2405 63.4327Z" fill="#17345F"/>
<path d="M28.0617 67.5142L25.9434 68.0309L26.7621 69.9317L28.8056 69.3748L28.0617 67.5142ZM26.0667 68.0919L28.0062 67.6181L28.6851 69.3138L26.8106 69.8236L26.0667 68.0919Z" fill="#17345F"/>
<path d="M24.1798 53.2443C24.2851 53.2305 24.3945 53.1945 24.4984 53.1709C24.763 53.1044 25.029 53.0393 25.2937 52.9728C26.1485 52.7608 27.0019 52.5461 27.8553 52.3327C28.8805 52.0764 29.9029 51.8187 30.9268 51.5624C31.8051 51.3408 32.6835 51.1205 33.5618 50.8988C33.9913 50.7908 34.418 50.6868 34.8461 50.576C34.853 50.5746 34.8586 50.5746 34.8641 50.5719C35.0013 50.5386 34.9722 50.3156 34.8336 50.3516C34.4831 50.4402 34.134 50.5275 33.7807 50.6162C32.9384 50.8295 32.0933 51.0415 31.2509 51.2521C30.2285 51.5084 29.2047 51.7661 28.1795 52.0238C27.2928 52.2468 26.4034 52.4671 25.5167 52.6902C25.0692 52.801 24.6231 52.916 24.1756 53.0199C24.1673 53.0213 24.1576 53.024 24.1479 53.0254C24.008 53.0434 24.0371 53.2637 24.1798 53.2443Z" fill="#17345F"/>
<path d="M24.5234 54.0355C25.2701 53.8498 26.0169 53.6656 26.765 53.4785C27.944 53.1848 29.1243 52.8925 30.3047 52.6016C30.5735 52.5351 30.8436 52.4672 31.1138 52.4021C31.251 52.3674 31.2232 52.1472 31.0833 52.1804C30.3366 52.3647 29.5898 52.5503 28.8417 52.7373C27.6627 53.0297 26.4824 53.3234 25.302 53.6143C25.0332 53.6808 24.763 53.7487 24.4943 53.8138C24.3557 53.8484 24.3834 54.0687 24.5234 54.0355Z" fill="#17345F"/>
<path d="M24.9072 54.7973C25.3699 54.6809 25.8354 54.5645 26.2982 54.4468C27.0366 54.2597 27.7764 54.0727 28.5162 53.8871C28.6852 53.8441 28.857 53.7998 29.0274 53.7568C29.1646 53.7222 29.1355 53.4992 28.997 53.5352C28.5342 53.6529 28.0701 53.7693 27.6074 53.8871C26.869 54.0727 26.1278 54.2597 25.3893 54.4468C25.2189 54.4897 25.0471 54.5341 24.8781 54.577C24.7396 54.6103 24.7701 54.8333 24.9072 54.7973Z" fill="#17345F"/>
<path d="M25.8438 57.8785C25.9491 57.8633 26.0586 57.8273 26.1625 57.8037C26.4271 57.7386 26.6931 57.6721 26.9577 57.607C27.8125 57.3936 28.6659 57.1803 29.5194 56.9669C30.5446 56.7106 31.567 56.4529 32.5908 56.1966C33.4692 55.975 34.3475 55.7547 35.2259 55.533C35.6554 55.425 36.0821 55.321 36.5102 55.2102C36.5171 55.2074 36.5226 55.2074 36.5282 55.2061C36.6653 55.1714 36.6362 54.9484 36.4977 54.9844C36.1472 55.0744 35.7981 55.1617 35.4448 55.2504C34.6024 55.4624 33.7573 55.6757 32.915 55.8863C31.8926 56.1426 30.8688 56.4003 29.8449 56.6566C28.9569 56.8796 28.0674 57.1013 27.1808 57.3244C26.7333 57.4352 26.2872 57.5488 25.8397 57.6541C25.8314 57.6555 25.8217 57.6582 25.812 57.6596C25.6721 57.6763 25.7011 57.8979 25.8438 57.8785Z" fill="#17345F"/>
<path d="M26.1874 58.6695C26.9342 58.4839 27.6809 58.2996 28.429 58.1126C29.608 57.8189 30.7884 57.5266 31.9688 57.2342C32.2389 57.1691 32.5077 57.1012 32.7779 57.0347C32.915 57.0015 32.8873 56.7798 32.7474 56.8145C32.0006 56.9987 31.2539 57.1844 30.5058 57.3714C29.3268 57.6637 28.1464 57.9574 26.966 58.2484C26.6973 58.3149 26.4271 58.3827 26.1583 58.4479C26.0198 58.4825 26.0475 58.7055 26.1874 58.6695Z" fill="#17345F"/>
<path d="M26.5703 59.4316C27.033 59.3152 27.4985 59.1974 27.9613 59.0811C28.6997 58.894 29.4395 58.707 30.1793 58.52C30.3483 58.4784 30.5201 58.4327 30.6905 58.3911C30.8277 58.3565 30.7986 58.1334 30.6601 58.1694C30.1973 58.2872 29.7332 58.4036 29.2705 58.52C28.5321 58.707 27.7909 58.894 27.0524 59.0811C26.882 59.124 26.7102 59.1683 26.5412 59.2113C26.4027 59.2473 26.4331 59.4676 26.5703 59.4316Z" fill="#17345F"/>
<path d="M27.8106 62.4462C27.9173 62.4324 28.0254 62.3964 28.1293 62.3728C28.3939 62.3063 28.6599 62.2412 28.9245 62.1747C29.7807 61.9627 30.6327 61.748 31.4862 61.5346C32.5114 61.2783 33.5352 61.0206 34.5576 60.7643C35.436 60.5427 36.3143 60.3224 37.1941 60.1007C37.6222 59.9927 38.0489 59.8888 38.477 59.7779C38.4839 59.7765 38.4908 59.7765 38.495 59.7738C38.6321 59.7405 38.603 59.5175 38.4645 59.5535C38.114 59.6421 37.7649 59.7294 37.4116 59.8181C36.5692 60.0315 35.7241 60.2434 34.8818 60.454C33.8594 60.7103 32.8369 60.968 31.8117 61.2257C30.9237 61.4487 30.0342 61.669 29.1476 61.8921C28.7001 62.0029 28.254 62.1179 27.8065 62.2218C27.7982 62.2232 27.7899 62.226 27.7788 62.2273C27.6388 62.2453 27.6679 62.4656 27.8106 62.4462Z" fill="#17345F"/>
<path d="M28.1542 63.2374C28.901 63.0518 29.6491 62.8675 30.3958 62.6805C31.5762 62.3868 32.7552 62.0944 33.9356 61.8035C34.2057 61.737 34.4745 61.6691 34.7447 61.6026C34.8818 61.5694 34.8541 61.3477 34.7142 61.3823C33.9674 61.5666 33.2207 61.7522 32.474 61.9393C31.2936 62.2316 30.1132 62.5253 28.9328 62.8162C28.6641 62.8827 28.3939 62.9506 28.1251 63.0157C27.9866 63.0504 28.0143 63.2734 28.1542 63.2374Z" fill="#17345F"/>
<path d="M28.5381 64.0021C29.0008 63.8857 29.4663 63.768 29.929 63.6516C30.6675 63.4646 31.4087 63.2775 32.1471 63.0905C32.3161 63.0476 32.4879 63.0032 32.6583 62.9603C32.7955 62.927 32.7664 62.704 32.6278 62.74C32.1651 62.8564 31.701 62.9741 31.2383 63.0905C30.4998 63.2775 29.7586 63.4646 29.0202 63.6516C28.8512 63.6946 28.678 63.7389 28.509 63.7805C28.3704 63.8151 28.4009 64.0354 28.5381 64.0021Z" fill="#17345F"/>
<path d="M29.7126 67.2384C29.8179 67.2232 29.9259 67.1871 30.0298 67.1636C30.2958 67.0971 30.5605 67.032 30.8265 66.9655C31.6813 66.7535 32.5347 66.5388 33.3881 66.3268C34.4133 66.0691 35.4357 65.8128 36.4596 65.5551C37.3379 65.3334 38.2163 65.1132 39.0946 64.8915C39.5241 64.7834 39.9508 64.6795 40.3789 64.5687C40.3858 64.5673 40.3914 64.5673 40.3955 64.5645C40.5341 64.5313 40.5036 64.3082 40.3664 64.3443C40.0159 64.4329 39.6654 64.5202 39.3135 64.6103C38.4712 64.8222 37.6261 65.0342 36.7837 65.2448C35.7613 65.5025 34.7375 65.7588 33.7123 66.0165C32.8256 66.2395 31.9362 66.4598 31.0495 66.6828C30.6006 66.7937 30.1559 66.9087 29.707 67.0126C29.6987 67.0153 29.6904 67.0167 29.6807 67.0195C29.5394 67.0361 29.5699 67.2564 29.7126 67.2384Z" fill="#17345F"/>
<path d="M30.0568 68.0282C30.8035 67.8439 31.5503 67.6583 32.297 67.4712C33.4774 67.1789 34.6578 66.8852 35.8382 66.5943C36.1069 66.5278 36.3771 66.4599 36.6458 66.3948C36.7844 66.3601 36.7567 66.1398 36.6168 66.1731C35.87 66.3587 35.1219 66.543 34.3752 66.73C33.1948 67.0237 32.0158 67.3161 30.8354 67.607C30.5653 67.6735 30.2965 67.7414 30.0263 67.8079C29.8892 67.8411 29.9169 68.0642 30.0568 68.0282Z" fill="#17345F"/>
<path d="M30.4399 68.7914C30.9026 68.6737 31.3667 68.5573 31.8295 68.4409C32.5693 68.2539 33.3091 68.0669 34.0475 67.8798C34.2179 67.8369 34.3897 67.7925 34.5587 67.7496C34.6973 67.7163 34.6682 67.4933 34.5297 67.5293C34.0669 67.6457 33.6028 67.7621 33.1401 67.8798C32.4003 68.0669 31.6605 68.2539 30.922 68.4409C30.7516 68.4825 30.5798 68.5268 30.4108 68.5698C30.2723 68.6058 30.3014 68.8274 30.4399 68.7914Z" fill="#17345F"/>
<path d="M21.2744 54.6423C21.4393 54.7324 21.5944 54.8321 21.7496 54.936L21.8632 55.015L21.9768 55.0954L22.089 55.1757L22.1985 55.2588L22.0045 55.3489C21.999 55.1549 21.999 54.9624 22.0045 54.7656C22.0087 54.5731 22.017 54.3791 22.0295 54.1865C22.0419 53.9926 22.0586 53.8 22.0821 53.606C22.0946 53.5104 22.1084 53.4135 22.1223 53.3179C22.1375 53.2223 22.1569 53.1239 22.1777 53.0283C22.1943 53.1253 22.2082 53.2237 22.2179 53.3193C22.229 53.4176 22.2373 53.5132 22.2456 53.6102C22.2608 53.8042 22.2691 53.9995 22.2733 54.1921C22.2775 54.386 22.2761 54.5786 22.2719 54.7753C22.2678 54.9679 22.2567 55.1619 22.2442 55.3544L22.2262 55.608L22.0489 55.4445L21.9463 55.3503L21.8466 55.2547L21.7468 55.1577L21.6499 55.0593C21.5182 54.925 21.3908 54.7892 21.2744 54.6423Z" fill="#6A9C2F"/>
<path d="M23.1377 59.2529C23.3026 59.343 23.4577 59.4427 23.6129 59.5466L23.7265 59.6256L23.8401 59.706L23.9523 59.7863L24.0632 59.8694L23.8678 59.9581C23.8637 59.7655 23.8637 59.5716 23.8678 59.3762C23.872 59.1837 23.8803 58.9897 23.8927 58.7971C23.9052 58.6032 23.9218 58.4106 23.9454 58.2166C23.9579 58.121 23.9717 58.0227 23.9856 57.9271C24.0008 57.8315 24.0202 57.7345 24.041 57.6389C24.0576 57.7359 24.0715 57.8343 24.0812 57.9299C24.0922 58.0268 24.1006 58.1224 24.1089 58.2208C24.1241 58.4147 24.1324 58.6101 24.1366 58.8027C24.1407 58.9966 24.1394 59.1892 24.1352 59.3845C24.131 59.5785 24.12 59.7725 24.1075 59.965L24.0895 60.2186L23.9121 60.0551L23.8096 59.9609L23.7099 59.8653L23.6101 59.7669L23.5131 59.6699C23.3815 59.5356 23.2541 59.3998 23.1377 59.2529Z" fill="#6A9C2F"/>
<path d="M25.824 45.2033L25.8046 45.159L25.576 44.6118C25.346 44.0659 24.6797 43.7154 24.0895 43.8345L24.041 43.8456L23.9731 43.8581C23.9495 43.8623 23.926 43.8692 23.9052 43.8747C23.8456 43.89 23.7902 43.9107 23.7376 43.9371L23.732 43.9384H23.7293C23.3095 44.1435 23.1197 44.6076 23.3109 45.0759L23.5339 45.6231L23.5575 45.6813L23.8249 46.3394L24.0881 46.284L24.3028 46.2396L24.0354 45.5788L24.0119 45.5261V45.5234L23.8013 45.0052C23.6725 44.6866 23.8443 44.3707 24.1851 44.3L24.253 44.2876C24.2626 44.2848 24.2723 44.2834 24.2807 44.2834C24.6145 44.228 24.9858 44.4303 25.1147 44.7378L25.3294 45.2518L25.3488 45.3003L25.6245 45.9653L25.8877 45.9099L26.1025 45.8656L25.824 45.2033Z" fill="#E39D27"/>
<path d="M30.2003 47.1955L30.2238 47.3728L21.4389 49.2459C21.2907 48.8358 21.3502 48.3966 21.3502 48.3966L21.1992 48.3343C21.2865 47.6818 21.7783 47.1428 22.5209 46.9877L27.6857 45.9084C28.7331 45.6868 29.7819 46.2423 30.2003 47.1955Z" fill="#E39D27"/>
<path d="M27.0095 47.1872L24.0668 47.8092C23.4697 47.9353 22.802 47.5862 22.5803 47.032L22.536 46.9212C22.3171 46.367 22.6205 45.8142 23.2134 45.6937L26.1297 45.0924C26.7213 44.9719 27.3946 45.3155 27.6274 45.86L27.6745 45.968C27.9058 46.5111 27.6066 47.0597 27.0095 47.1872Z" fill="#E39D27"/>
<path d="M21.4395 49.2461L21.6777 49.5204L22.5755 48.9191L21.4505 48.6199L21.4395 49.2461Z" fill="#E39D27"/>
<path d="M23.7334 43.9384L24.0368 43.8013L24.0728 44.0091L23.7334 43.9384Z" fill="#E39D27"/>
<path d="M26.1021 45.1453L26.0841 45.1009L25.8679 44.5579C25.6352 43.9663 24.9619 43.5825 24.3745 43.703L24.2567 43.7266C24.1791 43.7418 24.1043 43.7695 24.0364 43.7986C24.0323 43.8014 24.0253 43.8028 24.0212 43.8056C23.981 43.8236 23.9436 43.8471 23.9076 43.8735C23.8715 43.897 23.8369 43.9247 23.8078 43.9538C23.5404 44.2073 23.4462 44.6147 23.6042 45.0317L23.812 45.5692L23.8328 45.6232L24.0877 46.2869L24.1306 46.3977L24.6072 46.2952L24.308 45.5235L24.2872 45.4708L24.0918 44.9652C23.9879 44.6936 24.071 44.4235 24.2789 44.2877C24.3343 44.2517 24.398 44.224 24.47 44.2087L24.5379 44.1935C24.8787 44.1214 25.268 44.3445 25.4038 44.6895L25.6047 45.1993L25.6241 45.245L25.8873 45.9128L25.9275 46.0153L26.4055 45.9128L26.1021 45.1453Z" fill="#F9B437"/>
<path d="M27.3287 47.3412L24.3874 47.9798C23.7903 48.1101 23.1184 47.7277 22.8912 47.1278L22.8468 47.0087C22.621 46.4102 22.9203 45.82 23.5105 45.6939L26.4254 45.076C27.0169 44.9499 27.6944 45.3281 27.9341 45.917L27.9798 46.0333C28.2209 46.6221 27.9258 47.2109 27.3287 47.3412Z" fill="#F9B437"/>
<path d="M30.3726 47.5324L21.675 49.5205L21.6376 49.4138C21.2483 48.3539 21.7858 47.2996 22.8318 47.0766L27.9911 45.9696C29.0288 45.7466 30.0373 46.4351 30.3726 47.5324Z" fill="#FBC74B"/>
<mask id="mask0_1934_8376" style="mask-type:luminance" maskUnits="userSpaceOnUse" x="13" y="54" width="43" height="63">
<path d="M13.7998 54.2639H55.8278V116.331H13.7998V54.2639Z" fill="white"/>
</mask>
<g mask="url(#mask0_1934_8376)">
<path d="M47.1424 84.8983C46.3915 85.0632 45.0906 87.3284 43.7149 89.8928C41.6202 93.8024 39.3578 98.4062 38.6346 97.2937C36.3057 93.7151 34.6252 90.0563 32.4737 85.8238C32.4792 85.8141 32.4861 85.8099 32.4861 85.8099C31.72 84.3012 30.9511 82.8715 30.2085 81.5373C30.2016 81.5262 30.1974 81.5152 30.1919 81.5055C30.1891 81.4999 30.1849 81.4944 30.1836 81.4902C28.4726 78.416 26.9057 75.8557 25.8514 74.0408C25.8306 74.002 25.807 73.9646 25.7835 73.9258C24.9689 72.5155 24.4756 71.5762 24.4867 71.2215C24.502 70.7602 24.4479 69.5895 24.2526 68.1667V68.1639C24.024 66.4875 23.5973 64.4634 22.8602 62.8287C21.8461 60.5857 21.1714 57.5765 20.796 55.9902C20.796 55.9875 20.796 55.9861 20.7932 55.9833C20.796 55.9819 20.796 55.9819 20.7932 55.9819C20.6838 55.5137 20.5979 55.1701 20.5397 55.008C20.5411 55.0066 20.5397 55.0066 20.5369 55.0038C20.5286 54.9789 20.5203 54.9567 20.512 54.9401C20.2778 54.4787 19.671 54.4413 19.405 54.6284C19.333 54.6796 19.2249 54.796 19.1155 54.9789C18.8938 55.3391 18.6624 55.9473 18.6707 56.7716V56.7744C18.6707 56.9517 18.6846 57.1415 18.7123 57.341C18.7179 57.3964 18.7262 57.4519 18.7345 57.5073L18.6735 57.3521L17.9005 55.3848C17.9005 55.3848 17.8963 55.389 17.8908 55.3987V55.4014C17.7841 55.5483 16.957 56.6871 16.648 57.0778C16.3266 57.499 13.9105 61.845 13.8772 62.8522C13.8426 63.8594 17.41 69.1711 17.8395 70.3736C18.51 72.2536 22.1052 87.2522 23.8203 92.1427L23.8217 92.1455C25.4274 97.8354 27.7231 104.287 30.6103 109.113C32.6704 112.557 35.0284 115.172 37.6496 116.085C39.6778 116.793 43.8576 113.449 47.8171 109.113C50.0629 106.656 52.238 103.88 53.9116 101.343V101.34C54.5475 100.378 55.1127 99.4494 55.5796 98.5849C54.3743 95.645 49.0405 84.4841 47.1424 84.8983ZM19.0019 62.9021C18.801 62.9021 17.8187 61.1565 17.7439 60.9002C17.6677 60.6411 18.208 58.6696 18.3175 58.5062C18.51 58.2138 18.7068 57.8453 18.7747 57.7123C18.7774 57.7276 18.7816 57.7428 18.7843 57.7594C19.1806 59.5812 19.2014 62.8993 19.0019 62.9021Z" fill="#E28C72"/>
</g>
<path d="M19.5882 54.8155C19.4608 55.1743 19.7822 56.2494 20.0856 56.3935C20.4167 56.5514 20.6882 56.6595 20.7935 56.4101C20.885 56.194 20.6578 54.9346 20.3654 54.7767C19.9831 54.573 19.6464 54.6562 19.5882 54.8155Z" fill="#F6BDB9"/>
<path d="M91.5962 53.4175C91.1418 55.5317 91.146 61.9475 96.5214 62.934C101.883 63.9176 99.022 78.1666 88.1493 78.7582C77.2779 79.3484 67.0743 65.9126 71.1405 64.6436C75.2067 63.3745 78.6065 63.4286 77.2405 56.3186C75.8731 49.21 91.5962 53.4175 91.5962 53.4175Z" fill="#E28C72"/>
<path d="M119.324 109.113C119.325 112.875 119.005 116.252 117.937 117.961C114.563 123.369 107.04 127.978 101.421 130.283C101.258 130.351 101.096 130.416 100.938 130.479C98.1737 131.568 95.4015 132.415 92.7845 133.108H68.5078C68.699 131.635 69.1382 130.437 69.9611 130.057C72.1113 129.063 77.2733 128.313 80.8491 127.179C81.0957 127.1 81.3562 127.011 81.6388 126.907C81.6402 126.908 81.6402 126.908 81.6402 126.907C85.4141 125.538 91.9768 122.166 95.1327 119.793C96.8008 118.539 98.3885 117.447 99.8099 116.324C99.882 116.267 99.9568 116.209 100.026 116.152C101.406 115.049 102.618 113.906 103.585 112.55C104.015 111.947 104.18 110.653 104.186 109.113C104.193 107.288 103.98 105.116 103.731 103.334C103.575 102.237 103.408 101.289 103.268 100.659C103.082 99.8193 103.24 99.11 103.66 98.506C105.742 95.5065 114.242 95.1449 118.607 94.6877C118.635 95.6298 118.706 96.788 118.79 98.0876C119.006 101.316 119.321 105.401 119.324 109.113Z" fill="#E28C72"/>
<path d="M119.991 96.4375C120.163 98.1277 114.932 100.313 109.321 102.141C108.251 102.486 106.089 103.013 104.261 103.263C103.503 103.376 102.805 103.444 102.261 103.435C102.244 103.514 102.227 103.599 102.203 103.686C102.185 103.773 102.168 103.858 102.151 103.945C102.151 103.963 102.135 103.988 102.135 104.013C102.092 104.264 102.031 104.515 101.979 104.782C101.653 106.37 101.306 108.086 100.971 109.848C100.704 111.195 100.453 112.557 100.221 113.887C99.5314 117.898 99.0147 121.532 99.0673 123.256C99.1962 127.812 59.3641 128.511 59.08 123.473C59.0537 122.921 59.0094 122.154 58.9595 121.255C58.6824 116.767 58.2017 108.71 58.2349 104.394C58.2696 99.5256 57.8997 99.588 55.6927 102.108C55.5375 102.28 55.1316 102.159 54.5636 101.798C51.1721 99.6711 41.8718 89.4717 43.0438 87.2633C44.4057 84.6837 54.5594 67.2704 60.852 64.6741C63.282 63.6724 68.5244 62.8952 75.9627 62.4921C83.8333 68.0046 92.488 64.7517 95.4445 62.4131C100.133 63.8622 103.409 65.5705 105.684 67.0722C110.286 70.1021 118.725 84.2182 119.991 96.4375Z" fill="#17345F"/>
<path d="M54.5518 101.795C55.1225 102.154 55.5285 102.28 55.6836 102.105C57.8878 99.5894 58.2647 99.5215 58.2259 104.39C58.1968 108.707 58.6803 116.767 58.9518 121.25C69.9271 120.235 88.8574 118.057 88.8574 118.057L76.3083 99.48C71.5037 104.997 64.7013 109.801 61.6603 107.895C60.6227 107.245 61.2115 92.3728 61.2115 91.4723C61.2115 90.562 57.3572 97.6734 56.314 99.0976C55.9247 99.6171 55.2583 100.663 54.5518 101.795Z" fill="#2C3A49"/>
<path d="M90.7985 58.0655C91.2875 60.1076 80.2832 64.0505 80.2832 64.0505C80.2832 64.0505 78.4184 61.4972 77.4763 58.2996C77.2616 57.575 76.5204 57.1816 75.8207 57.0707C74.0945 56.795 73.327 57.6027 71.465 57.3811C68.8507 57.0666 69.5185 54.3816 69.6639 53.984C69.8288 53.531 70.2514 52.9325 69.5683 52.5654C68.6512 52.0735 69.0751 51.1176 69.5697 50.799C69.47 50.8059 68.8659 50.6951 68.6928 49.9733H68.6914C68.6845 49.9455 68.6761 49.9151 68.672 49.886C68.5598 49.2625 69.1735 48.8358 69.1292 48.6294C69.1195 48.5698 69.0544 48.5449 68.9075 48.5089C68.2924 48.3579 67.6592 48.254 67.3267 47.7912C66.9527 47.2703 67.3337 46.7646 67.7327 46.1744C68.1331 45.5815 69.3148 43.4992 69.2982 42.9769C69.2816 42.4518 69.0239 42.2371 69.0197 41.4529C69.0183 40.6771 70.0685 37.7539 71.253 35.8614C71.253 35.8614 71.253 35.8614 71.2558 35.8586C71.2641 35.842 71.2766 35.8268 71.2849 35.8101C71.005 35.8392 72.4542 28.473 79.6126 27.107C86.7697 25.7437 93.0927 30.1452 95.0517 36.3366C96.9691 42.4006 93.5083 44.8777 92.4568 48.9716C92.4347 49.0589 92.4125 49.1503 92.3917 49.2404C91.4372 53.4978 89.9908 54.7058 90.7985 58.0655Z" fill="#E28C72"/>
<path d="M69.1975 40.1659C69.3222 39.972 69.2862 39.5882 70.763 40.7533C71.5652 41.3865 71.7411 41.4641 71.9434 41.7689C72.0196 41.8866 71.7952 42.2247 71.6926 42.1457C71.162 41.737 70.3585 41.5015 69.778 41.3103C69.2543 41.1385 69.2335 41.2909 69.0978 41.1149C68.9661 40.939 68.998 40.4763 69.1975 40.1659Z" fill="#1D1D33"/>
<path d="M70.5636 42.4768C70.6148 42.5447 70.6495 42.6209 70.6689 42.704C70.6897 42.7872 70.6924 42.8717 70.68 42.9548C70.6661 43.0393 70.637 43.1183 70.5927 43.1917C70.5483 43.2637 70.4915 43.3261 70.4237 43.376C70.3544 43.4258 70.2782 43.4605 70.1951 43.4813C70.1119 43.5007 70.0288 43.5048 69.9443 43.491C69.8598 43.4785 69.7822 43.4494 69.7088 43.4051C69.6367 43.3607 69.5744 43.3039 69.5245 43.2347C69.4746 43.1654 69.4386 43.0892 69.4192 43.0061C69.3998 42.9229 69.3957 42.8398 69.4095 42.7553C69.422 42.6708 69.4511 42.5932 69.4954 42.5198C69.5398 42.4463 69.5966 42.3854 69.6658 42.3355C69.7351 42.2843 69.8099 42.2496 69.893 42.2302C69.9762 42.2094 70.0593 42.2067 70.1438 42.2191C70.2283 42.233 70.3073 42.2621 70.3793 42.3064C70.4527 42.3508 70.5137 42.4076 70.5636 42.4768Z" fill="#1D1D33"/>
<path d="M95.7223 45.806C95.5034 47.3701 93.8922 51.4986 91.4816 53.9453C90.7708 54.6685 83.1954 54.178 82.4057 53.2318C81.3805 52.0057 79.5116 48.3745 80.1184 47.8204C81.3403 46.7023 81.1034 42.8827 79.01 42.7913C76.9181 42.6999 76.3722 43.8428 76.1298 45.1354C76.0092 45.7769 75.7612 45.6646 75.0353 45.515C74.7998 45.4665 74.9605 43.4036 75.1517 42.4352C75.3955 41.1911 74.6959 36.7814 71.72 35.5192C69.3966 34.5328 92.4444 25.928 94.5544 33.8401C96.6603 41.7508 95.7223 45.806 95.7223 45.806Z" fill="#1D1D33"/>
<path d="M70.2636 36.435C76.1295 41.2895 84.1358 41.3463 88.0343 41.7882C90.0252 43.9024 94.0623 46.9835 96.52 48.4839C98.141 49.4607 102.418 50.9805 105.926 48.5601C104.5 46.8644 101.429 43.3399 97.3499 39.9276C97.3499 39.9276 97.415 32.2635 95.6943 30.2352C93.5095 27.6625 89.0166 25.9709 84.6179 25.4071C82.3777 25.1189 79.8438 25.4902 77.828 26.1316C77.828 26.1316 77.828 26.1316 77.8197 26.1344C76.7584 26.4808 75.833 26.8881 75.168 27.3245C71.7557 29.5314 69.7607 35.8185 70.2636 36.435Z" fill="#FF7733"/>
<path d="M94.2833 31.5015C95.2849 33.1114 95.6756 37.0044 94.8693 38.4147C93.6141 40.6134 89.088 41.7993 90.6618 41.712C91.8172 41.6483 95.979 40.8087 97.352 39.9276C97.352 39.9276 97.4185 32.2635 95.6964 30.2352C93.513 27.6625 89.0201 25.9709 84.62 25.4071C82.3812 25.1189 79.8472 25.4902 77.8301 26.1316C77.873 26.1538 77.9035 26.158 77.9437 26.1593C89.293 25.8878 93.2872 29.8806 94.2833 31.5015Z" fill="#E8931F"/>
<path d="M76.9236 44.379C77.4764 43.5464 78.8147 43.3289 79.488 44.0049C79.8302 44.3277 79.9604 44.8182 79.9659 45.3072C79.9701 45.8004 79.8676 46.3034 79.7083 46.7772C79.3536 47.704 78.7856 48.6115 78.255 49.4815C77.9876 49.886 77.608 50.274 77.1854 50.5164C76.9748 50.6383 76.7227 50.7021 76.5107 50.6106C76.3001 50.5039 76.1574 50.2684 76.048 50.0412L76.0078 50.0578C76.0923 50.3017 76.2004 50.5663 76.4511 50.7228C76.7144 50.8669 77.0303 50.8073 77.2741 50.6951C77.7714 50.4471 78.1594 50.0828 78.4919 49.645C78.805 49.2183 79.0737 48.7722 79.3439 48.3205C79.6044 47.8633 79.8676 47.4172 80.0657 46.8963C80.2292 46.3823 80.3303 45.8489 80.3178 45.2989C80.3026 44.7628 80.1585 44.1518 79.6999 43.7708C78.8022 42.9853 77.335 43.3718 76.8501 44.3402L76.9236 44.379Z" fill="#CB664E"/>
<path d="M77.1347 45.4237C77.6723 44.8973 78.9275 44.8889 78.595 46.399C78.2611 47.9105 77.2955 48.0518 76.9117 48.0699C76.5293 48.0837 77.2303 47.3065 77.2594 46.5653C77.2913 45.8241 76.8313 45.7216 77.1347 45.4237Z" fill="#CB664E"/>
<path d="M78.9696 98.5848L84.7344 97.9406C83.7563 89.1446 78.8616 74.153 73.295 62.6208C73.2326 62.4933 73.1135 62.377 72.993 62.3229C72.8766 62.273 72.6023 62.298 72.6023 62.298L67.6217 62.8438C67.6217 62.8438 67.3862 62.8923 67.2864 63.0032C67.195 63.1029 67.1313 63.247 67.2144 63.4132C72.7935 74.4439 78.0206 90.0479 78.9696 98.5848Z" fill="#FF7733"/>
<path d="M88.4785 100.66C94.9858 86.0468 99.4593 74.5658 102.374 64.8513C102.435 64.6463 102.298 64.3484 102.092 64.2861L97.3992 62.5778C97.1969 62.5183 96.9877 62.6291 96.9254 62.8314C94.0853 72.3048 89.5868 83.9119 83.1807 98.298L88.4785 100.66Z" fill="#FF7733"/>
<path d="M101.968 104.776H101.979C102.027 104.514 102.084 104.264 102.134 104.011C102.074 104.264 102.025 104.514 101.968 104.776Z" fill="#D99712"/>
<path d="M91.2188 99.6282C91.9142 105.329 96.8851 110.797 100.22 113.884C100.451 112.558 100.703 111.195 100.964 109.848C97.9186 108.484 94.3041 106.48 91.2188 99.6282Z" fill="#2C3A49"/>
<path d="M101.9 133.111H56.3711C57.0486 125.239 57.3409 121.336 57.4476 119.933C57.4476 119.933 57.5445 119.043 57.708 117.551C57.8826 116.065 58.1223 113.974 58.4215 111.554C58.4215 111.551 58.4215 111.551 58.4215 111.551C58.4215 111.55 58.4215 111.55 58.4215 111.55V111.545C58.4215 111.541 58.4229 111.539 58.4229 111.534C58.984 111.507 59.534 111.447 60.0743 111.371C60.0771 111.371 60.0771 111.371 60.0771 111.371C62.46 111.016 64.6503 110.211 66.6287 109.114C70.9609 106.716 74.2665 102.93 76.3086 99.484C76.7561 98.7318 77.1385 97.9961 77.4613 97.2979C77.4613 97.2979 77.9711 97.2979 78.8024 97.2979H90.8403C90.9248 98.1194 91.0564 98.9063 91.231 99.6628C92.2091 103.912 94.4908 107.091 96.6216 109.117C98.2522 110.669 99.7942 111.541 100.606 111.701L100.595 111.773L100.592 111.78V111.781L100.591 111.807V111.813L100.588 111.82L100.026 116.149L99.5407 119.901C100.171 123.254 100.818 126.836 101.417 130.28C101.584 131.239 101.745 132.184 101.9 133.111Z" fill="#FF7733"/>
<path d="M60.0733 111.367C59.95 114.078 59.8184 117.447 59.684 121.181C59.648 122.21 59.6106 123.267 59.5746 124.347C59.4804 127.159 59.3876 130.117 59.303 133.111H56.3701C57.0462 125.239 57.3399 121.336 57.4452 119.933C57.4452 119.933 57.5436 119.043 57.707 117.551C57.8802 116.06 58.1227 113.962 58.4219 111.533H58.4233C58.9816 111.502 59.5344 111.446 60.0733 111.367Z" fill="#B55424"/>
<path d="M104.261 103.261C103.503 103.374 102.805 103.442 102.26 103.434C102.244 103.511 102.227 103.597 102.202 103.685C102.21 103.597 102.219 103.511 102.227 103.426C102.331 102.026 102.443 100.336 102.537 98.7317C102.701 95.9179 102.83 93.3813 102.83 93.2178C102.83 92.0706 103.751 99.0241 104.261 103.261Z" fill="#2C3A49"/>
</g>
<defs>
<clipPath id="clip0_1934_8376">
<rect width="133" height="133" fill="white" transform="translate(0.5)"/>
</clipPath>
</defs>
</svg>
