<svg width="30" height="30" viewBox="0 0 30 30" fill="none" xmlns="http://www.w3.org/2000/svg">
<g id="Icons">
<path id="Vector" d="M3.75 25C3.0625 25 2.47375 24.755 1.98375 24.265C1.49375 23.775 1.24917 23.1867 1.25 22.5V10C1.25 9.64584 1.37 9.34875 1.61 9.10875C1.85 8.86875 2.14667 8.74917 2.5 8.75C2.85417 8.75 3.15125 8.87 3.39125 9.11C3.63125 9.35 3.75084 9.64667 3.75 10V22.5H23.75C24.1042 22.5 24.4013 22.62 24.6413 22.86C24.8813 23.1 25.0008 23.3967 25 23.75C25 24.1042 24.88 24.4013 24.64 24.6413C24.4 24.8813 24.1033 25.0008 23.75 25H3.75ZM8.75 20C8.0625 20 7.47375 19.755 6.98375 19.265C6.49375 18.775 6.24917 18.1867 6.25 17.5V7.5C6.25 6.8125 6.495 6.22375 6.985 5.73375C7.475 5.24375 8.06334 4.99917 8.75 5H26.25C26.9375 5 27.5263 5.245 28.0163 5.735C28.5063 6.225 28.7508 6.81334 28.75 7.5V17.5C28.75 18.1875 28.505 18.7763 28.015 19.2663C27.525 19.7563 26.9367 20.0008 26.25 20H8.75ZM11.25 17.5C11.25 16.8125 11.005 16.2238 10.515 15.7338C10.025 15.2438 9.43667 14.9992 8.75 15V17.5H11.25ZM23.75 17.5H26.25V15C25.5625 15 24.9738 15.245 24.4838 15.735C23.9938 16.225 23.7492 16.8133 23.75 17.5ZM17.5 16.25C18.5417 16.25 19.4271 15.8854 20.1563 15.1563C20.8854 14.4271 21.25 13.5417 21.25 12.5C21.25 11.4583 20.8854 10.5729 20.1563 9.84375C19.4271 9.11459 18.5417 8.75 17.5 8.75C16.4583 8.75 15.5729 9.11459 14.8438 9.84375C14.1146 10.5729 13.75 11.4583 13.75 12.5C13.75 13.5417 14.1146 14.4271 14.8438 15.1563C15.5729 15.8854 16.4583 16.25 17.5 16.25ZM8.75 10C9.4375 10 10.0263 9.755 10.5163 9.265C11.0063 8.775 11.2508 8.18667 11.25 7.5H8.75V10ZM26.25 10V7.5H23.75C23.75 8.1875 23.995 8.77625 24.485 9.26625C24.975 9.75625 25.5633 10.0008 26.25 10Z" fill="#17345F"/>
</g>
</svg>
