<svg width="30" height="30" viewBox="0 0 30 30" fill="none" xmlns="http://www.w3.org/2000/svg">
<g id="Icons">
<path id="Vector" d="M5 26.25V14.5312L2.75 16.25L1.25 14.25L15 3.75L28.75 14.25L27.25 16.2188L25 14.5312V26.25H5ZM10 18.75C9.64583 18.75 9.34875 18.63 9.10875 18.39C8.86875 18.15 8.74917 17.8533 8.75 17.5C8.75 17.1458 8.87 16.8487 9.11 16.6087C9.35 16.3687 9.64667 16.2492 10 16.25C10.3542 16.25 10.6513 16.37 10.8913 16.61C11.1313 16.85 11.2508 17.1467 11.25 17.5C11.25 17.8542 11.13 18.1513 10.89 18.3913C10.65 18.6313 10.3533 18.7508 10 18.75ZM15 18.75C14.6458 18.75 14.3487 18.63 14.1087 18.39C13.8687 18.15 13.7492 17.8533 13.75 17.5C13.75 17.1458 13.87 16.8487 14.11 16.6087C14.35 16.3687 14.6467 16.2492 15 16.25C15.3542 16.25 15.6513 16.37 15.8913 16.61C16.1313 16.85 16.2508 17.1467 16.25 17.5C16.25 17.8542 16.13 18.1513 15.89 18.3913C15.65 18.6313 15.3533 18.7508 15 18.75ZM20 18.75C19.6458 18.75 19.3487 18.63 19.1087 18.39C18.8687 18.15 18.7492 17.8533 18.75 17.5C18.75 17.1458 18.87 16.8487 19.11 16.6087C19.35 16.3687 19.6467 16.2492 20 16.25C20.3542 16.25 20.6512 16.37 20.8912 16.61C21.1312 16.85 21.2508 17.1467 21.25 17.5C21.25 17.8542 21.13 18.1513 20.89 18.3913C20.65 18.6313 20.3533 18.7508 20 18.75Z" fill="#17345F"/>
</g>
</svg>
