<svg width="30" height="30" viewBox="0 0 30 30" fill="none" xmlns="http://www.w3.org/2000/svg">
<g id="Icons">
<path id="Vector" d="M25 19.375C23.4375 19.375 21.9375 19.125 20.5375 18.6625C20.3177 18.5925 20.0831 18.5834 19.8585 18.6363C19.634 18.6891 19.428 18.8018 19.2625 18.9625L16.5125 21.7125C12.964 19.9078 10.0797 17.0235 8.275 13.475L11.025 10.7125C11.1906 10.5554 11.3079 10.3544 11.3632 10.133C11.4186 9.9116 11.4097 9.679 11.3375 9.4625C10.8633 8.02257 10.6228 6.516 10.625 5C10.625 4.3125 10.0625 3.75 9.375 3.75H5C4.3125 3.75 3.75 4.3125 3.75 5C3.75 16.7375 13.2625 26.25 25 26.25C25.6875 26.25 26.25 25.6875 26.25 25V20.625C26.25 19.9375 25.6875 19.375 25 19.375ZM23.75 15H26.25C26.25 12.0163 25.0647 9.15483 22.955 7.04505C20.8452 4.93526 17.9837 3.75 15 3.75V6.25C19.8375 6.25 23.75 10.1625 23.75 15ZM18.75 15H21.25C21.25 11.55 18.45 8.75 15 8.75V11.25C17.075 11.25 18.75 12.925 18.75 15Z" fill="#17345F"/>
</g>
</svg>
