<svg width="28" height="28" viewBox="0 0 28 28" fill="none" xmlns="http://www.w3.org/2000/svg">
<g id="Icons">
<path id="Vector" d="M12.7751 14.8167L11.0834 13.1542C10.8695 12.9403 10.6023 12.8334 10.2819 12.8334C9.96145 12.8334 9.68418 12.95 9.45007 13.1834C9.23618 13.3973 9.12923 13.6695 9.12923 14C9.12923 14.3306 9.23618 14.6028 9.45007 14.8167L11.9584 17.325C12.1917 17.5584 12.464 17.675 12.7751 17.675C13.0862 17.675 13.3584 17.5584 13.5917 17.325L18.5501 12.3667C18.7834 12.1334 18.895 11.8612 18.8849 11.55C18.8748 11.2389 18.7632 10.9667 18.5501 10.7334C18.3167 10.5 18.0398 10.3787 17.7194 10.3694C17.399 10.36 17.1217 10.4717 16.8876 10.7042L12.7751 14.8167ZM9.5084 25.375L7.81673 22.5167L4.6084 21.8167C4.31673 21.7584 4.0834 21.6079 3.9084 21.3652C3.7334 21.1225 3.66534 20.855 3.70423 20.5625L4.02506 17.2667L1.83757 14.7584C1.64312 14.5445 1.5459 14.2917 1.5459 14C1.5459 13.7084 1.64312 13.4556 1.83757 13.2417L4.02506 10.7334L3.70423 7.43755C3.66534 7.14588 3.7334 6.87832 3.9084 6.63488C4.0834 6.39143 4.31673 6.24093 4.6084 6.18338L7.81673 5.48338L9.5084 2.62505C9.66395 2.37227 9.87784 2.20193 10.1501 2.11405C10.4223 2.02616 10.6945 2.04093 10.9667 2.15838L14.0001 3.44171L17.0334 2.15838C17.3056 2.04171 17.5778 2.02693 17.8501 2.11405C18.1223 2.20116 18.3362 2.37149 18.4917 2.62505L20.1834 5.48338L23.3917 6.18338C23.6834 6.24171 23.9167 6.3926 24.0917 6.63605C24.2667 6.87949 24.3348 7.14666 24.2959 7.43755L23.9751 10.7334L26.1626 13.2417C26.357 13.4556 26.4542 13.7084 26.4542 14C26.4542 14.2917 26.357 14.5445 26.1626 14.7584L23.9751 17.2667L24.2959 20.5625C24.3348 20.8542 24.2667 21.1218 24.0917 21.3652C23.9167 21.6087 23.6834 21.7592 23.3917 21.8167L20.1834 22.5167L18.4917 25.375C18.3362 25.6278 18.1223 25.7982 17.8501 25.886C17.5778 25.9739 17.3056 25.9592 17.0334 25.8417L14.0001 24.5584L10.9667 25.8417C10.6945 25.9584 10.4223 25.9732 10.1501 25.886C9.87784 25.7989 9.66395 25.6286 9.5084 25.375Z" fill="#0063F7"/>
</g>
</svg>
