<svg width="30" height="30" viewBox="0 0 30 30" fill="none" xmlns="http://www.w3.org/2000/svg">
<g id="Icons">
<path id="Vector" d="M23.75 23.75H18.75V26.25H23.75C25.125 26.25 26.25 25.125 26.25 23.75V18.75H23.75M23.75 3.75H18.75V6.25H23.75V11.25H26.25V6.25C26.25 4.875 25.125 3.75 23.75 3.75ZM6.25 6.25H11.25V3.75H6.25C4.875 3.75 3.75 4.875 3.75 6.25V11.25H6.25M6.25 18.75H3.75V23.75C3.75 25.125 4.875 26.25 6.25 26.25H11.25V23.75H6.25V18.75ZM8.75 13.75H11.25V16.25H8.75V13.75ZM13.75 13.75H16.25V16.25H13.75V13.75ZM18.75 13.75H21.25V16.25H18.75V13.75ZM8.75 8.75H11.25V11.25H8.75V8.75ZM13.75 8.75H16.25V11.25H13.75V8.75ZM18.75 8.75H21.25V11.25H18.75V8.75ZM8.75 18.75H11.25V21.25H8.75V18.75ZM13.75 18.75H16.25V21.25H13.75V18.75ZM18.75 18.75H21.25V21.25H18.75V18.75Z" fill="#17345F"/>
</g>
</svg>
