<svg width="18" height="18" viewBox="0 0 18 18" fill="none" xmlns="http://www.w3.org/2000/svg">
<path d="M3.75 3.75004V14.25C3.75 14.4489 3.82902 14.6397 3.96967 14.7804C4.11032 14.921 4.30109 15 4.5 15H6.75V13.5H5.25V4.50004H6.75V3.00004H4.5C4.30109 3.00004 4.11032 3.07905 3.96967 3.21971C3.82902 3.36036 3.75 3.55112 3.75 3.75004ZM14.4315 3.02254L8.4315 1.52254C8.32096 1.49497 8.2056 1.49294 8.09416 1.51661C7.98272 1.54028 7.87814 1.58903 7.78836 1.65915C7.69857 1.72928 7.62594 1.81893 7.57598 1.92131C7.52602 2.02369 7.50003 2.13611 7.5 2.25004V15.75C7.49974 15.8641 7.52553 15.9766 7.5754 16.0792C7.62528 16.1817 7.69792 16.2715 7.78778 16.3417C7.87764 16.4118 7.98235 16.4606 8.09391 16.4841C8.20547 16.5077 8.32094 16.5054 8.4315 16.4775L14.4315 14.9775C14.5938 14.9371 14.738 14.8435 14.841 14.7116C14.944 14.5798 15 14.4173 15 14.25V3.75004C15 3.58274 14.944 3.42026 14.841 3.28844C14.738 3.15662 14.5938 3.06302 14.4315 3.02254ZM11.25 9.14104C11.2414 9.33415 11.1586 9.51648 11.0189 9.65008C10.8792 9.78368 10.6933 9.85824 10.5 9.85824C10.3067 9.85824 10.1208 9.78368 9.98114 9.65008C9.84143 9.51648 9.75864 9.33415 9.75 9.14104V8.85829C9.7501 8.65937 9.82921 8.46865 9.96994 8.32807C10.1107 8.18748 10.3015 8.10856 10.5004 8.10866C10.6993 8.10876 10.89 8.18787 11.0306 8.3286C11.1712 8.46932 11.2501 8.66012 11.25 8.85904V9.14104Z" fill="white"/>
</svg>
