<svg width="24" height="25" viewBox="0 0 24 25" fill="none" xmlns="http://www.w3.org/2000/svg">
<path d="M12 16.5C13.0609 16.5 14.0783 16.0786 14.8284 15.3284C15.5786 14.5783 16 13.5609 16 12.5C16 11.4391 15.5786 10.4217 14.8284 9.67157C14.0783 8.92143 13.0609 8.5 12 8.5C10.9391 8.5 9.92172 8.92143 9.17157 9.67157C8.42143 10.4217 8 11.4391 8 12.5C8 13.5609 8.42143 14.5783 9.17157 15.3284C9.92172 16.0786 10.9391 16.5 12 16.5Z" stroke="#FF7733" stroke-width="1.5" stroke-linecap="round" stroke-linejoin="round"/>
<path d="M3 16.5V8.5C3 7.17392 3.52678 5.90215 4.46447 4.96447C5.40215 4.02678 6.67392 3.5 8 3.5H16C17.3261 3.5 18.5979 4.02678 19.5355 4.96447C20.4732 5.90215 21 7.17392 21 8.5V16.5C21 17.8261 20.4732 19.0979 19.5355 20.0355C18.5979 20.9732 17.3261 21.5 16 21.5H8C6.67392 21.5 5.40215 20.9732 4.46447 20.0355C3.52678 19.0979 3 17.8261 3 16.5Z" stroke="#FF7733" stroke-width="1.5"/>
<path d="M17.5 7.01002L17.51 6.99902" stroke="#FF7733" stroke-width="1.5" stroke-linecap="round" stroke-linejoin="round"/>
</svg>
