<svg width="20" height="18" viewBox="0 0 20 18" fill="none" xmlns="http://www.w3.org/2000/svg">
<path d="M1.69779e-06 15.9999V5.3499C1.69779e-06 4.93324 0.112668 4.55824 0.338002 4.2249C0.563335 3.89157 0.867335 3.6499 1.25 3.4999L9.25 0.299902C9.48334 0.199902 9.73334 0.149902 10 0.149902C10.2667 0.149902 10.5167 0.199902 10.75 0.299902L18.75 3.4999C19.1333 3.6499 19.4377 3.89157 19.663 4.2249C19.8883 4.55824 20.0007 4.93324 20 5.3499V15.9999C20 16.5499 19.804 17.0209 19.412 17.4129C19.02 17.8049 18.5493 18.0006 18 17.9999H14V9.9999H6V17.9999H2C1.45 17.9999 0.979002 17.8039 0.587002 17.4119C0.195002 17.0199 -0.000664969 16.5492 1.69779e-06 15.9999ZM7 17.9999V15.9999H9V17.9999H7ZM9 14.9999V12.9999H11V14.9999H9ZM11 17.9999V15.9999H13V17.9999H11Z" fill="#B7C0CD"/>
</svg>
