<svg width="16" height="14" viewBox="0 0 16 14" fill="none" xmlns="http://www.w3.org/2000/svg">
<path d="M0.500001 12.25V4.26249C0.500001 3.94999 0.584501 3.66874 0.753501 3.41874C0.922501 3.16874 1.1505 2.98749 1.4375 2.87499L7.4375 0.474988C7.6125 0.399988 7.8 0.362488 8 0.362488C8.2 0.362488 8.3875 0.399988 8.5625 0.474988L14.5625 2.87499C14.85 2.98749 15.0783 3.16874 15.2473 3.41874C15.4163 3.66874 15.5005 3.94999 15.5 4.26249V12.25C15.5 12.6625 15.353 13.0157 15.059 13.3097C14.765 13.6037 14.412 13.7505 14 13.75H11V7.74999H5V13.75H2C1.5875 13.75 1.23425 13.603 0.940251 13.309C0.646251 13.015 0.499501 12.662 0.500001 12.25ZM5.75 13.75V12.25H7.25V13.75H5.75ZM7.25 11.5V9.99999H8.75V11.5H7.25ZM8.75 13.75V12.25H10.25V13.75H8.75Z" fill="#FF7733"/>
</svg>
