<svg width="38" height="44" viewBox="0 0 38 44" fill="none" xmlns="http://www.w3.org/2000/svg">
<path d="M36.9766 30.3311C36.8145 30.1357 36.6553 29.9404 36.499 29.752C34.3506 27.1533 33.0508 25.585 33.0508 18.2285C33.0508 14.4199 32.1397 11.2949 30.3438 8.95117C29.0195 7.21973 27.2295 5.90625 24.8701 4.93555C24.8398 4.91866 24.8126 4.8965 24.79 4.87012C23.9414 2.02832 21.6191 0.125 19 0.125C16.3809 0.125 14.0596 2.02832 13.2109 4.86719C13.1883 4.8926 13.1616 4.91406 13.1318 4.93066C7.62598 7.19727 4.9502 11.5459 4.9502 18.2256C4.9502 25.585 3.65235 27.1533 1.50196 29.749C1.34571 29.9375 1.18653 30.1289 1.02442 30.3281C0.605671 30.8331 0.340359 31.4475 0.259882 32.0986C0.179406 32.7497 0.287135 33.4102 0.570318 34.002C1.17286 35.2715 2.45704 36.0596 3.92286 36.0596H34.0879C35.5469 36.0596 36.8223 35.2725 37.4268 34.0088C37.7112 33.4169 37.8199 32.7558 37.7401 32.104C37.6603 31.4522 37.3953 30.8369 36.9766 30.3311ZM19 43.875C20.4112 43.8739 21.7957 43.4908 23.0068 42.7665C24.2179 42.0421 25.2103 41.0035 25.8789 39.7607C25.9104 39.7012 25.926 39.6345 25.9241 39.5671C25.9222 39.4998 25.9029 39.4341 25.8681 39.3764C25.8333 39.3187 25.7842 39.271 25.7255 39.2379C25.6668 39.2048 25.6006 39.1874 25.5332 39.1875H12.4688C12.4013 39.1873 12.3349 39.2045 12.2761 39.2375C12.2173 39.2706 12.168 39.3183 12.1331 39.376C12.0982 39.4337 12.0789 39.4995 12.0769 39.5669C12.075 39.6343 12.0905 39.7011 12.1221 39.7607C12.7906 41.0033 13.7829 42.0419 14.9938 42.7662C16.2047 43.4905 17.589 43.8737 19 43.875Z" fill="#17345F"/>
</svg>
