<svg width="15" height="16" viewBox="0 0 15 16" fill="none" xmlns="http://www.w3.org/2000/svg">
<path d="M13.0725 8.735C13.1025 8.495 13.125 8.255 13.125 8C13.125 7.745 13.1025 7.505 13.0725 7.265L14.655 6.0275C14.7975 5.915 14.835 5.7125 14.745 5.5475L13.245 2.9525C13.155 2.7875 12.9525 2.7275 12.7875 2.7875L10.92 3.5375C10.53 3.2375 10.11 2.99 9.6525 2.8025L9.3675 0.815C9.345 0.635 9.1875 0.5 9 0.5H6C5.8125 0.5 5.655 0.635 5.6325 0.815L5.3475 2.8025C4.89 2.99 4.47 3.245 4.08 3.5375L2.2125 2.7875C2.04 2.72 1.845 2.7875 1.755 2.9525L0.255002 5.5475C0.157502 5.7125 0.202502 5.915 0.345002 6.0275L1.9275 7.265C1.8975 7.505 1.875 7.7525 1.875 8C1.875 8.2475 1.8975 8.495 1.9275 8.735L0.345002 9.9725C0.202502 10.085 0.165002 10.2875 0.255002 10.4525L1.755 13.0475C1.845 13.2125 2.0475 13.2725 2.2125 13.2125L4.08 12.4625C4.47 12.7625 4.89 13.01 5.3475 13.1975L5.6325 15.185C5.655 15.365 5.8125 15.5 6 15.5H9C9.1875 15.5 9.345 15.365 9.3675 15.185L9.6525 13.1975C10.11 13.01 10.53 12.755 10.92 12.4625L12.7875 13.2125C12.96 13.28 13.155 13.2125 13.245 13.0475L14.745 10.4525C14.835 10.2875 14.7975 10.085 14.655 9.9725L13.0725 8.735ZM7.5 10.625C6.0525 10.625 4.875 9.4475 4.875 8C4.875 6.5525 6.0525 5.375 7.5 5.375C8.9475 5.375 10.125 6.5525 10.125 8C10.125 9.4475 8.9475 10.625 7.5 10.625Z" fill="#FF7733"/>
</svg>
