<svg width="610" height="384" viewBox="0 0 610 384" fill="none" xmlns="http://www.w3.org/2000/svg">
<rect width="610" height="384" rx="8" fill="white"/>
<line x1="462" y1="74" x2="462" y2="323" stroke="#029153" stroke-width="4" stroke-dasharray="12 12"/>
<path d="M224.869 204.704C126.914 142.866 56.8083 230.469 34 282V323H585V82.3999C445.9 25.1614 347.314 282 224.869 204.704Z" fill="url(#paint0_linear_2293_12406)"/>
<path d="M34 282C56.9325 230.469 127.42 142.866 225.908 204.704C349.02 282 448.142 25.1614 588 82.3999" stroke="#06C270" stroke-width="4"/>
<path d="M11.66 32V18H17.72C18.9733 18 20.0533 18.2067 20.96 18.62C21.8667 19.02 22.5667 19.6 23.06 20.36C23.5533 21.12 23.8 22.0267 23.8 23.08C23.8 24.12 23.5533 25.02 23.06 25.78C22.5667 26.54 21.8667 27.1267 20.96 27.54C20.0533 27.94 18.9733 28.14 17.72 28.14H13.46L14.9 26.68V32H11.66ZM14.9 27.04L13.46 25.5H17.54C18.54 25.5 19.2867 25.2867 19.78 24.86C20.2733 24.4333 20.52 23.84 20.52 23.08C20.52 22.3067 20.2733 21.7067 19.78 21.28C19.2867 20.8533 18.54 20.64 17.54 20.64H13.46L14.9 19.1V27.04ZM31.2136 32.16C29.9869 32.16 28.9069 31.92 27.9736 31.44C27.0536 30.96 26.3403 30.3067 25.8336 29.48C25.3269 28.64 25.0736 27.6867 25.0736 26.62C25.0736 25.54 25.3203 24.5867 25.8136 23.76C26.3203 22.92 27.0069 22.2667 27.8736 21.8C28.7403 21.32 29.7203 21.08 30.8136 21.08C31.8669 21.08 32.8136 21.3067 33.6536 21.76C34.5069 22.2 35.1803 22.84 35.6736 23.68C36.1669 24.5067 36.4136 25.5 36.4136 26.66C36.4136 26.78 36.4069 26.92 36.3936 27.08C36.3803 27.2267 36.3669 27.3667 36.3536 27.5H27.6136V25.68H34.7136L33.5136 26.22C33.5136 25.66 33.4003 25.1733 33.1736 24.76C32.9469 24.3467 32.6336 24.0267 32.2336 23.8C31.8336 23.56 31.3669 23.44 30.8336 23.44C30.3003 23.44 29.8269 23.56 29.4136 23.8C29.0136 24.0267 28.7003 24.3533 28.4736 24.78C28.2469 25.1933 28.1336 25.6867 28.1336 26.26V26.74C28.1336 27.3267 28.2603 27.8467 28.5136 28.3C28.7803 28.74 29.1469 29.08 29.6136 29.32C30.0936 29.5467 30.6536 29.66 31.2936 29.66C31.8669 29.66 32.3669 29.5733 32.7936 29.4C33.2336 29.2267 33.6336 28.9667 33.9936 28.62L35.6536 30.42C35.1603 30.98 34.5403 31.4133 33.7936 31.72C33.0469 32.0133 32.1869 32.16 31.2136 32.16ZM45.0308 21.08C45.8841 21.08 46.6441 21.2533 47.3108 21.6C47.9908 21.9333 48.5241 22.4533 48.9108 23.16C49.2974 23.8533 49.4908 24.7467 49.4908 25.84V32H46.3708V26.32C46.3708 25.4533 46.1774 24.8133 45.7908 24.4C45.4174 23.9867 44.8841 23.78 44.1908 23.78C43.6974 23.78 43.2508 23.8867 42.8508 24.1C42.4641 24.3 42.1574 24.6133 41.9308 25.04C41.7174 25.4667 41.6108 26.0133 41.6108 26.68V32H38.4908V21.24H41.4708V24.22L40.9108 23.32C41.2974 22.6 41.8508 22.0467 42.5708 21.66C43.2908 21.2733 44.1108 21.08 45.0308 21.08ZM57.017 32.16C56.0037 32.16 55.0904 31.9333 54.277 31.48C53.4637 31.0133 52.817 30.3667 52.337 29.54C51.8704 28.7133 51.637 27.74 51.637 26.62C51.637 25.4867 51.8704 24.5067 52.337 23.68C52.817 22.8533 53.4637 22.2133 54.277 21.76C55.0904 21.3067 56.0037 21.08 57.017 21.08C57.9237 21.08 58.717 21.28 59.397 21.68C60.077 22.08 60.6037 22.6867 60.977 23.5C61.3504 24.3133 61.537 25.3533 61.537 26.62C61.537 27.8733 61.357 28.9133 60.997 29.74C60.637 30.5533 60.117 31.16 59.437 31.56C58.7704 31.96 57.9637 32.16 57.017 32.16ZM57.557 29.6C58.0637 29.6 58.5237 29.48 58.937 29.24C59.3504 29 59.677 28.66 59.917 28.22C60.1704 27.7667 60.297 27.2333 60.297 26.62C60.297 25.9933 60.1704 25.46 59.917 25.02C59.677 24.58 59.3504 24.24 58.937 24C58.5237 23.76 58.0637 23.64 57.557 23.64C57.037 23.64 56.5704 23.76 56.157 24C55.7437 24.24 55.4104 24.58 55.157 25.02C54.917 25.46 54.797 25.9933 54.797 26.62C54.797 27.2333 54.917 27.7667 55.157 28.22C55.4104 28.66 55.7437 29 56.157 29.24C56.5704 29.48 57.037 29.6 57.557 29.6ZM60.377 32V29.8L60.437 26.6L60.237 23.42V17.16H63.357V32H60.377ZM72.8447 32V29.9L72.6447 29.44V25.68C72.6447 25.0133 72.438 24.4933 72.0247 24.12C71.6247 23.7467 71.0047 23.56 70.1647 23.56C69.5914 23.56 69.0247 23.6533 68.4647 23.84C67.918 24.0133 67.4514 24.2533 67.0647 24.56L65.9447 22.38C66.5314 21.9667 67.238 21.6467 68.0647 21.42C68.8914 21.1933 69.7314 21.08 70.5847 21.08C72.2247 21.08 73.498 21.4667 74.4047 22.24C75.3114 23.0133 75.7647 24.22 75.7647 25.86V32H72.8447ZM69.5647 32.16C68.7247 32.16 68.0047 32.02 67.4047 31.74C66.8047 31.4467 66.3447 31.0533 66.0247 30.56C65.7047 30.0667 65.5447 29.5133 65.5447 28.9C65.5447 28.26 65.698 27.7 66.0047 27.22C66.3247 26.74 66.8247 26.3667 67.5047 26.1C68.1847 25.82 69.0714 25.68 70.1647 25.68H73.0247V27.5H70.5047C69.7714 27.5 69.2647 27.62 68.9847 27.86C68.718 28.1 68.5847 28.4 68.5847 28.76C68.5847 29.16 68.738 29.48 69.0447 29.72C69.3647 29.9467 69.798 30.06 70.3447 30.06C70.8647 30.06 71.3314 29.94 71.7447 29.7C72.158 29.4467 72.458 29.08 72.6447 28.6L73.1247 30.04C72.898 30.7333 72.4847 31.26 71.8847 31.62C71.2847 31.98 70.5114 32.16 69.5647 32.16ZM84.9484 32.16C84.0418 32.16 83.2484 31.96 82.5684 31.56C81.8884 31.16 81.3551 30.5533 80.9684 29.74C80.5951 28.9133 80.4084 27.8733 80.4084 26.62C80.4084 25.3533 80.5884 24.3133 80.9484 23.5C81.3084 22.6867 81.8284 22.08 82.5084 21.68C83.1884 21.28 84.0018 21.08 84.9484 21.08C85.9618 21.08 86.8684 21.3133 87.6684 21.78C88.4818 22.2333 89.1218 22.8733 89.5884 23.7C90.0684 24.5267 90.3084 25.5 90.3084 26.62C90.3084 27.7533 90.0684 28.7333 89.5884 29.56C89.1218 30.3867 88.4818 31.0267 87.6684 31.48C86.8684 31.9333 85.9618 32.16 84.9484 32.16ZM78.5884 35.88V21.24H81.5684V23.44L81.5084 26.64L81.7084 29.82V35.88H78.5884ZM84.4084 29.6C84.9284 29.6 85.3884 29.48 85.7884 29.24C86.2018 29 86.5284 28.66 86.7684 28.22C87.0218 27.7667 87.1484 27.2333 87.1484 26.62C87.1484 25.9933 87.0218 25.46 86.7684 25.02C86.5284 24.58 86.2018 24.24 85.7884 24C85.3884 23.76 84.9284 23.64 84.4084 23.64C83.8884 23.64 83.4218 23.76 83.0084 24C82.5951 24.24 82.2684 24.58 82.0284 25.02C81.7884 25.46 81.6684 25.9933 81.6684 26.62C81.6684 27.2333 81.7884 27.7667 82.0284 28.22C82.2684 28.66 82.5951 29 83.0084 29.24C83.4218 29.48 83.8884 29.6 84.4084 29.6ZM98.8213 32V29.9L98.6213 29.44V25.68C98.6213 25.0133 98.4146 24.4933 98.0013 24.12C97.6013 23.7467 96.9813 23.56 96.1413 23.56C95.5679 23.56 95.0013 23.6533 94.4413 23.84C93.8946 24.0133 93.4279 24.2533 93.0413 24.56L91.9213 22.38C92.5079 21.9667 93.2146 21.6467 94.0413 21.42C94.8679 21.1933 95.7079 21.08 96.5613 21.08C98.2013 21.08 99.4746 21.4667 100.381 22.24C101.288 23.0133 101.741 24.22 101.741 25.86V32H98.8213ZM95.5413 32.16C94.7013 32.16 93.9813 32.02 93.3813 31.74C92.7813 31.4467 92.3213 31.0533 92.0013 30.56C91.6813 30.0667 91.5213 29.5133 91.5213 28.9C91.5213 28.26 91.6746 27.7 91.9813 27.22C92.3013 26.74 92.8013 26.3667 93.4813 26.1C94.1613 25.82 95.0479 25.68 96.1413 25.68H99.0013V27.5H96.4813C95.7479 27.5 95.2413 27.62 94.9613 27.86C94.6946 28.1 94.5613 28.4 94.5613 28.76C94.5613 29.16 94.7146 29.48 95.0213 29.72C95.3413 29.9467 95.7746 30.06 96.3213 30.06C96.8413 30.06 97.3079 29.94 97.7213 29.7C98.1346 29.4467 98.4346 29.08 98.6213 28.6L99.1013 30.04C98.8746 30.7333 98.4613 31.26 97.8613 31.62C97.2613 31.98 96.4879 32.16 95.5413 32.16ZM108.965 32.16C107.698 32.16 106.712 31.84 106.005 31.2C105.298 30.5467 104.945 29.58 104.945 28.3V18.86H108.065V28.26C108.065 28.7133 108.185 29.0667 108.425 29.32C108.665 29.56 108.992 29.68 109.405 29.68C109.898 29.68 110.318 29.5467 110.665 29.28L111.505 31.48C111.185 31.7067 110.798 31.88 110.345 32C109.905 32.1067 109.445 32.16 108.965 32.16ZM103.285 23.88V21.48H110.745V23.88H103.285ZM119.856 32V29.9L119.656 29.44V25.68C119.656 25.0133 119.45 24.4933 119.036 24.12C118.636 23.7467 118.016 23.56 117.176 23.56C116.603 23.56 116.036 23.6533 115.476 23.84C114.93 24.0133 114.463 24.2533 114.076 24.56L112.956 22.38C113.543 21.9667 114.25 21.6467 115.076 21.42C115.903 21.1933 116.743 21.08 117.596 21.08C119.236 21.08 120.51 21.4667 121.416 22.24C122.323 23.0133 122.776 24.22 122.776 25.86V32H119.856ZM116.576 32.16C115.736 32.16 115.016 32.02 114.416 31.74C113.816 31.4467 113.356 31.0533 113.036 30.56C112.716 30.0667 112.556 29.5133 112.556 28.9C112.556 28.26 112.71 27.7 113.016 27.22C113.336 26.74 113.836 26.3667 114.516 26.1C115.196 25.82 116.083 25.68 117.176 25.68H120.036V27.5H117.516C116.783 27.5 116.276 27.62 115.996 27.86C115.73 28.1 115.596 28.4 115.596 28.76C115.596 29.16 115.75 29.48 116.056 29.72C116.376 29.9467 116.81 30.06 117.356 30.06C117.876 30.06 118.343 29.94 118.756 29.7C119.17 29.4467 119.47 29.08 119.656 28.6L120.136 30.04C119.91 30.7333 119.496 31.26 118.896 31.62C118.296 31.98 117.523 32.16 116.576 32.16ZM132.14 21.08C132.993 21.08 133.753 21.2533 134.42 21.6C135.1 21.9333 135.633 22.4533 136.02 23.16C136.407 23.8533 136.6 24.7467 136.6 25.84V32H133.48V26.32C133.48 25.4533 133.287 24.8133 132.9 24.4C132.527 23.9867 131.993 23.78 131.3 23.78C130.807 23.78 130.36 23.8867 129.96 24.1C129.573 24.3 129.267 24.6133 129.04 25.04C128.827 25.4667 128.72 26.0133 128.72 26.68V32H125.6V21.24H128.58V24.22L128.02 23.32C128.407 22.6 128.96 22.0467 129.68 21.66C130.4 21.2733 131.22 21.08 132.14 21.08ZM145.312 32V18H151.372C152.626 18 153.706 18.2067 154.612 18.62C155.519 19.02 156.219 19.6 156.712 20.36C157.206 21.12 157.452 22.0267 157.452 23.08C157.452 24.12 157.206 25.02 156.712 25.78C156.219 26.54 155.519 27.1267 154.612 27.54C153.706 27.94 152.626 28.14 151.372 28.14H147.112L148.552 26.68V32H145.312ZM148.552 27.04L147.112 25.5H151.192C152.192 25.5 152.939 25.2867 153.432 24.86C153.926 24.4333 154.172 23.84 154.172 23.08C154.172 22.3067 153.926 21.7067 153.432 21.28C152.939 20.8533 152.192 20.64 151.192 20.64H147.112L148.552 19.1V27.04ZM164.866 32.16C163.639 32.16 162.559 31.92 161.626 31.44C160.706 30.96 159.993 30.3067 159.486 29.48C158.979 28.64 158.726 27.6867 158.726 26.62C158.726 25.54 158.973 24.5867 159.466 23.76C159.973 22.92 160.659 22.2667 161.526 21.8C162.393 21.32 163.373 21.08 164.466 21.08C165.519 21.08 166.466 21.3067 167.306 21.76C168.159 22.2 168.833 22.84 169.326 23.68C169.819 24.5067 170.066 25.5 170.066 26.66C170.066 26.78 170.059 26.92 170.046 27.08C170.033 27.2267 170.019 27.3667 170.006 27.5H161.266V25.68H168.366L167.166 26.22C167.166 25.66 167.053 25.1733 166.826 24.76C166.599 24.3467 166.286 24.0267 165.886 23.8C165.486 23.56 165.019 23.44 164.486 23.44C163.953 23.44 163.479 23.56 163.066 23.8C162.666 24.0267 162.353 24.3533 162.126 24.78C161.899 25.1933 161.786 25.6867 161.786 26.26V26.74C161.786 27.3267 161.913 27.8467 162.166 28.3C162.433 28.74 162.799 29.08 163.266 29.32C163.746 29.5467 164.306 29.66 164.946 29.66C165.519 29.66 166.019 29.5733 166.446 29.4C166.886 29.2267 167.286 28.9667 167.646 28.62L169.306 30.42C168.813 30.98 168.193 31.4133 167.446 31.72C166.699 32.0133 165.839 32.16 164.866 32.16ZM172.143 32V21.24H175.123V24.28L174.703 23.4C175.023 22.64 175.536 22.0667 176.243 21.68C176.95 21.28 177.81 21.08 178.823 21.08V23.96C178.69 23.9467 178.57 23.94 178.463 23.94C178.356 23.9267 178.243 23.92 178.123 23.92C177.27 23.92 176.576 24.1667 176.043 24.66C175.523 25.14 175.263 25.8933 175.263 26.92V32H172.143ZM187.058 32.16C186.111 32.16 185.298 31.96 184.618 31.56C183.938 31.16 183.418 30.5533 183.058 29.74C182.698 28.9133 182.518 27.8733 182.518 26.62C182.518 25.3533 182.704 24.3133 183.078 23.5C183.464 22.6867 183.998 22.08 184.678 21.68C185.358 21.28 186.151 21.08 187.058 21.08C188.071 21.08 188.978 21.3067 189.778 21.76C190.591 22.2133 191.231 22.8533 191.698 23.68C192.178 24.5067 192.418 25.4867 192.418 26.62C192.418 27.74 192.178 28.7133 191.698 29.54C191.231 30.3667 190.591 31.0133 189.778 31.48C188.978 31.9333 188.071 32.16 187.058 32.16ZM180.698 32V17.16H183.818V23.42L183.618 26.6L183.678 29.8V32H180.698ZM186.518 29.6C187.038 29.6 187.498 29.48 187.898 29.24C188.311 29 188.638 28.66 188.878 28.22C189.131 27.7667 189.258 27.2333 189.258 26.62C189.258 25.9933 189.131 25.46 188.878 25.02C188.638 24.58 188.311 24.24 187.898 24C187.498 23.76 187.038 23.64 186.518 23.64C185.998 23.64 185.531 23.76 185.118 24C184.704 24.24 184.378 24.58 184.138 25.02C183.898 25.46 183.778 25.9933 183.778 26.62C183.778 27.2333 183.898 27.7667 184.138 28.22C184.378 28.66 184.704 29 185.118 29.24C185.531 29.48 185.998 29.6 186.518 29.6ZM199.046 32.16C198.153 32.16 197.353 31.9867 196.646 31.64C195.953 31.2933 195.413 30.7667 195.026 30.06C194.64 29.34 194.446 28.4267 194.446 27.32V21.24H197.566V26.86C197.566 27.7533 197.753 28.4133 198.126 28.84C198.513 29.2533 199.053 29.46 199.746 29.46C200.226 29.46 200.653 29.36 201.026 29.16C201.4 28.9467 201.693 28.6267 201.906 28.2C202.12 27.76 202.226 27.2133 202.226 26.56V21.24H205.346V32H202.386V29.04L202.926 29.9C202.566 30.6467 202.033 31.2133 201.326 31.6C200.633 31.9733 199.873 32.16 199.046 32.16ZM208.237 32V17.16H211.357V32H208.237ZM220.853 32V29.9L220.653 29.44V25.68C220.653 25.0133 220.446 24.4933 220.033 24.12C219.633 23.7467 219.013 23.56 218.173 23.56C217.599 23.56 217.033 23.6533 216.473 23.84C215.926 24.0133 215.459 24.2533 215.073 24.56L213.953 22.38C214.539 21.9667 215.246 21.6467 216.073 21.42C216.899 21.1933 217.739 21.08 218.593 21.08C220.233 21.08 221.506 21.4667 222.413 22.24C223.319 23.0133 223.773 24.22 223.773 25.86V32H220.853ZM217.573 32.16C216.733 32.16 216.013 32.02 215.413 31.74C214.813 31.4467 214.353 31.0533 214.033 30.56C213.713 30.0667 213.553 29.5133 213.553 28.9C213.553 28.26 213.706 27.7 214.013 27.22C214.333 26.74 214.833 26.3667 215.513 26.1C216.193 25.82 217.079 25.68 218.173 25.68H221.033V27.5H218.513C217.779 27.5 217.273 27.62 216.993 27.86C216.726 28.1 216.593 28.4 216.593 28.76C216.593 29.16 216.746 29.48 217.053 29.72C217.373 29.9467 217.806 30.06 218.353 30.06C218.873 30.06 219.339 29.94 219.753 29.7C220.166 29.4467 220.466 29.08 220.653 28.6L221.133 30.04C220.906 30.7333 220.493 31.26 219.893 31.62C219.293 31.98 218.519 32.16 217.573 32.16ZM233.136 21.08C233.99 21.08 234.75 21.2533 235.416 21.6C236.096 21.9333 236.63 22.4533 237.016 23.16C237.403 23.8533 237.596 24.7467 237.596 25.84V32H234.476V26.32C234.476 25.4533 234.283 24.8133 233.896 24.4C233.523 23.9867 232.99 23.78 232.296 23.78C231.803 23.78 231.356 23.8867 230.956 24.1C230.57 24.3 230.263 24.6133 230.036 25.04C229.823 25.4667 229.716 26.0133 229.716 26.68V32H226.596V21.24H229.576V24.22L229.016 23.32C229.403 22.6 229.956 22.0467 230.676 21.66C231.396 21.2733 232.216 21.08 233.136 21.08Z" fill="black"/>
<line x1="31" y1="323" x2="585" y2="323" stroke="black" stroke-width="4"/>
<line x1="33" y1="74" x2="33" y2="325" stroke="black" stroke-width="4"/>
<path d="M37.024 345.096C36.3947 345.096 35.8027 344.957 35.248 344.68C34.704 344.403 34.2667 344.008 33.936 343.496L34.624 342.696C34.9333 343.144 35.2907 343.485 35.696 343.72C36.1013 343.955 36.5493 344.072 37.04 344.072C38.4267 344.072 39.12 343.251 39.12 341.608V334.824H35.024V333.8H40.288V341.56C40.288 342.744 40.0107 343.629 39.456 344.216C38.912 344.803 38.1013 345.096 37.024 345.096ZM48.8636 345V343.144L48.8156 342.84V339.736C48.8156 339.021 48.613 338.472 48.2076 338.088C47.813 337.704 47.221 337.512 46.4316 337.512C45.8876 337.512 45.3703 337.603 44.8796 337.784C44.389 337.965 43.973 338.205 43.6316 338.504L43.1196 337.656C43.5463 337.293 44.0583 337.016 44.6556 336.824C45.253 336.621 45.8823 336.52 46.5436 336.52C47.6316 336.52 48.469 336.792 49.0556 337.336C49.653 337.869 49.9516 338.685 49.9516 339.784V345H48.8636ZM45.9676 345.08C45.3383 345.08 44.789 344.979 44.3196 344.776C43.861 344.563 43.509 344.275 43.2636 343.912C43.0183 343.539 42.8956 343.112 42.8956 342.632C42.8956 342.195 42.997 341.8 43.1996 341.448C43.413 341.085 43.7543 340.797 44.2236 340.584C44.7036 340.36 45.3436 340.248 46.1436 340.248H49.0396V341.096H46.1756C45.365 341.096 44.7996 341.24 44.4796 341.528C44.1703 341.816 44.0156 342.173 44.0156 342.6C44.0156 343.08 44.2023 343.464 44.5756 343.752C44.949 344.04 45.4716 344.184 46.1436 344.184C46.7836 344.184 47.333 344.04 47.7916 343.752C48.261 343.453 48.6023 343.027 48.8156 342.472L49.0716 343.256C48.8583 343.811 48.485 344.253 47.9516 344.584C47.429 344.915 46.7676 345.08 45.9676 345.08ZM57.3251 336.52C58.0078 336.52 58.6051 336.653 59.1171 336.92C59.6398 337.176 60.0451 337.571 60.3331 338.104C60.6318 338.637 60.7811 339.309 60.7811 340.12V345H59.6451V340.232C59.6451 339.347 59.4211 338.68 58.9731 338.232C58.5358 337.773 57.9171 337.544 57.1171 337.544C56.5198 337.544 55.9971 337.667 55.5491 337.912C55.1118 338.147 54.7705 338.493 54.5251 338.952C54.2905 339.4 54.1731 339.944 54.1731 340.584V345H53.0371V336.6H54.1251V338.904L53.9491 338.472C54.2158 337.864 54.6425 337.389 55.2291 337.048C55.8158 336.696 56.5145 336.52 57.3251 336.52Z" fill="black"/>
<path d="M83.88 339.224H89.8V340.248H83.88V339.224ZM84.008 345H82.824V333.8H90.504V334.824H84.008V345ZM95.9958 345.08C95.1211 345.08 94.3531 344.899 93.6918 344.536C93.0304 344.163 92.5131 343.656 92.1398 343.016C91.7664 342.365 91.5798 341.624 91.5798 340.792C91.5798 339.96 91.7558 339.224 92.1078 338.584C92.4704 337.944 92.9611 337.443 93.5798 337.08C94.2091 336.707 94.9131 336.52 95.6918 336.52C96.4811 336.52 97.1798 336.701 97.7878 337.064C98.4064 337.416 98.8918 337.917 99.2438 338.568C99.5958 339.208 99.7718 339.949 99.7718 340.792C99.7718 340.845 99.7664 340.904 99.7558 340.968C99.7558 341.021 99.7558 341.08 99.7558 341.144H92.4438V340.296H99.1478L98.6998 340.632C98.6998 340.024 98.5664 339.485 98.2998 339.016C98.0438 338.536 97.6918 338.163 97.2438 337.896C96.7958 337.629 96.2784 337.496 95.6918 337.496C95.1158 337.496 94.5984 337.629 94.1398 337.896C93.6811 338.163 93.3238 338.536 93.0678 339.016C92.8118 339.496 92.6838 340.045 92.6838 340.664V340.84C92.6838 341.48 92.8224 342.045 93.0998 342.536C93.3878 343.016 93.7824 343.395 94.2838 343.672C94.7958 343.939 95.3771 344.072 96.0278 344.072C96.5398 344.072 97.0144 343.981 97.4518 343.8C97.8998 343.619 98.2838 343.341 98.6038 342.968L99.2438 343.704C98.8704 344.152 98.4011 344.493 97.8358 344.728C97.2811 344.963 96.6678 345.08 95.9958 345.08ZM106.42 345.08C105.684 345.08 105.023 344.915 104.436 344.584C103.849 344.243 103.385 343.752 103.044 343.112C102.703 342.472 102.532 341.699 102.532 340.792C102.532 339.875 102.703 339.101 103.044 338.472C103.396 337.832 103.865 337.347 104.452 337.016C105.039 336.685 105.695 336.52 106.42 336.52C107.22 336.52 107.935 336.701 108.564 337.064C109.204 337.416 109.705 337.912 110.068 338.552C110.431 339.192 110.612 339.939 110.612 340.792C110.612 341.635 110.431 342.381 110.068 343.032C109.705 343.672 109.204 344.173 108.564 344.536C107.935 344.899 107.22 345.08 106.42 345.08ZM102.084 345V333.128H103.22V339.08L103.06 340.776L103.172 342.472V345H102.084ZM106.34 344.072C106.937 344.072 107.471 343.939 107.94 343.672C108.409 343.395 108.783 343.011 109.06 342.52C109.337 342.019 109.476 341.443 109.476 340.792C109.476 340.131 109.337 339.555 109.06 339.064C108.783 338.573 108.409 338.195 107.94 337.928C107.471 337.651 106.937 337.512 106.34 337.512C105.743 337.512 105.204 337.651 104.724 337.928C104.255 338.195 103.881 338.573 103.604 339.064C103.337 339.555 103.204 340.131 103.204 340.792C103.204 341.443 103.337 342.019 103.604 342.52C103.881 343.011 104.255 343.395 104.724 343.672C105.204 343.939 105.743 344.072 106.34 344.072Z" fill="black"/>
<path d="M130.824 345V333.8H131.8L136.92 342.536H136.408L141.48 333.8H142.456V345H141.32V335.576H141.592L136.92 343.576H136.36L131.656 335.576H131.96V345H130.824ZM151.129 345V343.144L151.081 342.84V339.736C151.081 339.021 150.879 338.472 150.473 338.088C150.079 337.704 149.487 337.512 148.697 337.512C148.153 337.512 147.636 337.603 147.145 337.784C146.655 337.965 146.239 338.205 145.897 338.504L145.385 337.656C145.812 337.293 146.324 337.016 146.921 336.824C147.519 336.621 148.148 336.52 148.809 336.52C149.897 336.52 150.735 336.792 151.321 337.336C151.919 337.869 152.217 338.685 152.217 339.784V345H151.129ZM148.233 345.08C147.604 345.08 147.055 344.979 146.585 344.776C146.127 344.563 145.775 344.275 145.529 343.912C145.284 343.539 145.161 343.112 145.161 342.632C145.161 342.195 145.263 341.8 145.465 341.448C145.679 341.085 146.02 340.797 146.489 340.584C146.969 340.36 147.609 340.248 148.409 340.248H151.305V341.096H148.441C147.631 341.096 147.065 341.24 146.745 341.528C146.436 341.816 146.281 342.173 146.281 342.6C146.281 343.08 146.468 343.464 146.841 343.752C147.215 344.04 147.737 344.184 148.409 344.184C149.049 344.184 149.599 344.04 150.057 343.752C150.527 343.453 150.868 343.027 151.081 342.472L151.337 343.256C151.124 343.811 150.751 344.253 150.217 344.584C149.695 344.915 149.033 345.08 148.233 345.08ZM155.303 345V336.6H156.391V338.888L156.279 338.488C156.513 337.848 156.908 337.363 157.463 337.032C158.017 336.691 158.705 336.52 159.527 336.52V337.624C159.484 337.624 159.441 337.624 159.399 337.624C159.356 337.613 159.313 337.608 159.271 337.608C158.385 337.608 157.692 337.88 157.191 338.424C156.689 338.957 156.439 339.72 156.439 340.712V345H155.303Z" fill="black"/>
<path d="M178.032 345L183.152 333.8H184.32L189.44 345H188.192L183.488 334.488H183.968L179.264 345H178.032ZM180.048 342.008L180.4 341.048H186.912L187.264 342.008H180.048ZM195.389 345.08C194.663 345.08 194.007 344.915 193.421 344.584C192.834 344.243 192.365 343.757 192.013 343.128C191.671 342.488 191.501 341.709 191.501 340.792C191.501 339.875 191.671 339.101 192.013 338.472C192.354 337.832 192.818 337.347 193.405 337.016C193.991 336.685 194.653 336.52 195.389 336.52C196.189 336.52 196.903 336.701 197.533 337.064C198.173 337.416 198.674 337.917 199.037 338.568C199.399 339.208 199.581 339.949 199.581 340.792C199.581 341.645 199.399 342.392 199.037 343.032C198.674 343.672 198.173 344.173 197.533 344.536C196.903 344.899 196.189 345.08 195.389 345.08ZM191.053 348.104V336.6H192.141V339.128L192.029 340.808L192.189 342.504V348.104H191.053ZM195.309 344.072C195.906 344.072 196.439 343.939 196.909 343.672C197.378 343.395 197.751 343.011 198.029 342.52C198.306 342.019 198.445 341.443 198.445 340.792C198.445 340.141 198.306 339.571 198.029 339.08C197.751 338.589 197.378 338.205 196.909 337.928C196.439 337.651 195.906 337.512 195.309 337.512C194.711 337.512 194.173 337.651 193.693 337.928C193.223 338.205 192.85 338.589 192.573 339.08C192.306 339.571 192.173 340.141 192.173 340.792C192.173 341.443 192.306 342.019 192.573 342.52C192.85 343.011 193.223 343.395 193.693 343.672C194.173 343.939 194.711 344.072 195.309 344.072ZM201.897 345V336.6H202.985V338.888L202.873 338.488C203.107 337.848 203.502 337.363 204.057 337.032C204.611 336.691 205.299 336.52 206.121 336.52V337.624C206.078 337.624 206.035 337.624 205.993 337.624C205.95 337.613 205.907 337.608 205.865 337.608C204.979 337.608 204.286 337.88 203.785 338.424C203.283 338.957 203.033 339.72 203.033 340.712V345H201.897Z" fill="black"/>
<path d="M225.824 345V333.8H226.8L231.92 342.536H231.408L236.48 333.8H237.456V345H236.32V335.576H236.592L231.92 343.576H231.36L226.656 335.576H226.96V345H225.824ZM244.433 345.08C243.559 345.08 242.791 344.899 242.129 344.536C241.468 344.163 240.951 343.656 240.577 343.016C240.204 342.365 240.017 341.624 240.017 340.792C240.017 339.96 240.193 339.224 240.545 338.584C240.908 337.944 241.399 337.443 242.017 337.08C242.647 336.707 243.351 336.52 244.129 336.52C244.919 336.52 245.617 336.701 246.225 337.064C246.844 337.416 247.329 337.917 247.681 338.568C248.033 339.208 248.209 339.949 248.209 340.792C248.209 340.845 248.204 340.904 248.193 340.968C248.193 341.021 248.193 341.08 248.193 341.144H240.881V340.296H247.585L247.137 340.632C247.137 340.024 247.004 339.485 246.737 339.016C246.481 338.536 246.129 338.163 245.681 337.896C245.233 337.629 244.716 337.496 244.129 337.496C243.553 337.496 243.036 337.629 242.577 337.896C242.119 338.163 241.761 338.536 241.505 339.016C241.249 339.496 241.121 340.045 241.121 340.664V340.84C241.121 341.48 241.26 342.045 241.537 342.536C241.825 343.016 242.22 343.395 242.721 343.672C243.233 343.939 243.815 344.072 244.465 344.072C244.977 344.072 245.452 343.981 245.889 343.8C246.337 343.619 246.721 343.341 247.041 342.968L247.681 343.704C247.308 344.152 246.839 344.493 246.273 344.728C245.719 344.963 245.105 345.08 244.433 345.08ZM250.522 345V336.6H251.658V345H250.522ZM251.098 334.744C250.863 334.744 250.666 334.664 250.506 334.504C250.346 334.344 250.266 334.152 250.266 333.928C250.266 333.704 250.346 333.517 250.506 333.368C250.666 333.208 250.863 333.128 251.098 333.128C251.332 333.128 251.53 333.203 251.69 333.352C251.85 333.501 251.93 333.688 251.93 333.912C251.93 334.147 251.85 334.344 251.69 334.504C251.54 334.664 251.343 334.744 251.098 334.744Z" fill="black"/>
<path d="M275.024 345.096C274.395 345.096 273.803 344.957 273.248 344.68C272.704 344.403 272.267 344.008 271.936 343.496L272.624 342.696C272.933 343.144 273.291 343.485 273.696 343.72C274.101 343.955 274.549 344.072 275.04 344.072C276.427 344.072 277.12 343.251 277.12 341.608V334.824H273.024V333.8H278.288V341.56C278.288 342.744 278.011 343.629 277.456 344.216C276.912 344.803 276.101 345.096 275.024 345.096ZM285.072 345.08C284.357 345.08 283.733 344.947 283.2 344.68C282.666 344.413 282.25 344.013 281.952 343.48C281.664 342.947 281.52 342.28 281.52 341.48V336.6H282.656V341.352C282.656 342.248 282.874 342.925 283.312 343.384C283.76 343.832 284.384 344.056 285.184 344.056C285.77 344.056 286.277 343.939 286.704 343.704C287.141 343.459 287.472 343.107 287.696 342.648C287.93 342.189 288.048 341.64 288.048 341V336.6H289.184V345H288.096V342.696L288.272 343.112C288.005 343.731 287.589 344.216 287.024 344.568C286.469 344.909 285.818 345.08 285.072 345.08ZM296.638 336.52C297.32 336.52 297.918 336.653 298.43 336.92C298.952 337.176 299.358 337.571 299.646 338.104C299.944 338.637 300.094 339.309 300.094 340.12V345H298.958V340.232C298.958 339.347 298.734 338.68 298.286 338.232C297.848 337.773 297.23 337.544 296.43 337.544C295.832 337.544 295.31 337.667 294.862 337.912C294.424 338.147 294.083 338.493 293.838 338.952C293.603 339.4 293.486 339.944 293.486 340.584V345H292.35V336.6H293.438V338.904L293.262 338.472C293.528 337.864 293.955 337.389 294.542 337.048C295.128 336.696 295.827 336.52 296.638 336.52Z" fill="black"/>
<path d="M323.024 345.096C322.395 345.096 321.803 344.957 321.248 344.68C320.704 344.403 320.267 344.008 319.936 343.496L320.624 342.696C320.933 343.144 321.291 343.485 321.696 343.72C322.101 343.955 322.549 344.072 323.04 344.072C324.427 344.072 325.12 343.251 325.12 341.608V334.824H321.024V333.8H326.288V341.56C326.288 342.744 326.011 343.629 325.456 344.216C324.912 344.803 324.101 345.096 323.024 345.096ZM333.072 345.08C332.357 345.08 331.733 344.947 331.2 344.68C330.666 344.413 330.25 344.013 329.952 343.48C329.664 342.947 329.52 342.28 329.52 341.48V336.6H330.656V341.352C330.656 342.248 330.874 342.925 331.312 343.384C331.76 343.832 332.384 344.056 333.184 344.056C333.77 344.056 334.277 343.939 334.704 343.704C335.141 343.459 335.472 343.107 335.696 342.648C335.93 342.189 336.048 341.64 336.048 341V336.6H337.184V345H336.096V342.696L336.272 343.112C336.005 343.731 335.589 344.216 335.024 344.568C334.469 344.909 333.818 345.08 333.072 345.08ZM340.35 345V333.128H341.486V345H340.35Z" fill="black"/>
<path d="M361.032 345L366.152 333.8H367.32L372.44 345H371.192L366.488 334.488H366.968L362.264 345H361.032ZM363.048 342.008L363.4 341.048H369.912L370.264 342.008H363.048ZM377.559 348.184C376.791 348.184 376.055 348.072 375.351 347.848C374.647 347.624 374.076 347.304 373.639 346.888L374.215 346.024C374.609 346.376 375.095 346.653 375.671 346.856C376.257 347.069 376.876 347.176 377.527 347.176C378.593 347.176 379.377 346.925 379.879 346.424C380.38 345.933 380.631 345.165 380.631 344.12V342.024L380.791 340.584L380.679 339.144V336.6H381.767V343.976C381.767 345.427 381.409 346.488 380.695 347.16C379.991 347.843 378.945 348.184 377.559 348.184ZM377.351 344.68C376.551 344.68 375.831 344.509 375.191 344.168C374.551 343.816 374.044 343.331 373.671 342.712C373.308 342.093 373.127 341.384 373.127 340.584C373.127 339.784 373.308 339.08 373.671 338.472C374.044 337.853 374.551 337.373 375.191 337.032C375.831 336.691 376.551 336.52 377.351 336.52C378.097 336.52 378.769 336.675 379.367 336.984C379.964 337.293 380.439 337.752 380.791 338.36C381.143 338.968 381.319 339.709 381.319 340.584C381.319 341.459 381.143 342.2 380.791 342.808C380.439 343.416 379.964 343.88 379.367 344.2C378.769 344.52 378.097 344.68 377.351 344.68ZM377.463 343.672C378.081 343.672 378.631 343.544 379.111 343.288C379.591 343.021 379.969 342.659 380.247 342.2C380.524 341.731 380.663 341.192 380.663 340.584C380.663 339.976 380.524 339.443 380.247 338.984C379.969 338.525 379.591 338.168 379.111 337.912C378.631 337.645 378.081 337.512 377.463 337.512C376.855 337.512 376.305 337.645 375.815 337.912C375.335 338.168 374.956 338.525 374.679 338.984C374.412 339.443 374.279 339.976 374.279 340.584C374.279 341.192 374.412 341.731 374.679 342.2C374.956 342.659 375.335 343.021 375.815 343.288C376.305 343.544 376.855 343.672 377.463 343.672ZM387.184 345.08C386.49 345.08 385.834 344.984 385.216 344.792C384.597 344.589 384.112 344.339 383.76 344.04L384.272 343.144C384.613 343.4 385.05 343.624 385.584 343.816C386.117 343.997 386.677 344.088 387.264 344.088C388.064 344.088 388.64 343.965 388.992 343.72C389.344 343.464 389.52 343.128 389.52 342.712C389.52 342.403 389.418 342.163 389.216 341.992C389.024 341.811 388.768 341.677 388.448 341.592C388.128 341.496 387.77 341.416 387.376 341.352C386.981 341.288 386.586 341.213 386.192 341.128C385.808 341.043 385.456 340.92 385.136 340.76C384.816 340.589 384.554 340.36 384.352 340.072C384.16 339.784 384.064 339.4 384.064 338.92C384.064 338.461 384.192 338.051 384.448 337.688C384.704 337.325 385.077 337.043 385.568 336.84C386.069 336.627 386.677 336.52 387.392 336.52C387.936 336.52 388.48 336.595 389.024 336.744C389.568 336.883 390.016 337.069 390.368 337.304L389.872 338.216C389.498 337.96 389.098 337.779 388.672 337.672C388.245 337.555 387.818 337.496 387.392 337.496C386.634 337.496 386.074 337.629 385.712 337.896C385.36 338.152 385.184 338.483 385.184 338.888C385.184 339.208 385.28 339.459 385.472 339.64C385.674 339.821 385.936 339.965 386.256 340.072C386.586 340.168 386.944 340.248 387.328 340.312C387.722 340.376 388.112 340.456 388.496 340.552C388.89 340.637 389.248 340.76 389.568 340.92C389.898 341.069 390.16 341.288 390.352 341.576C390.554 341.853 390.656 342.221 390.656 342.68C390.656 343.171 390.517 343.597 390.24 343.96C389.973 344.312 389.578 344.589 389.056 344.792C388.544 344.984 387.92 345.08 387.184 345.08Z" fill="black"/>
<path d="M413.912 345.096C413.08 345.096 412.28 344.963 411.512 344.696C410.755 344.419 410.168 344.067 409.752 343.64L410.216 342.728C410.611 343.112 411.139 343.437 411.8 343.704C412.472 343.96 413.176 344.088 413.912 344.088C414.616 344.088 415.187 344.003 415.624 343.832C416.072 343.651 416.397 343.411 416.6 343.112C416.813 342.813 416.92 342.483 416.92 342.12C416.92 341.683 416.792 341.331 416.536 341.064C416.291 340.797 415.965 340.589 415.56 340.44C415.155 340.28 414.707 340.141 414.216 340.024C413.725 339.907 413.235 339.784 412.744 339.656C412.253 339.517 411.8 339.336 411.384 339.112C410.979 338.888 410.648 338.595 410.392 338.232C410.147 337.859 410.024 337.373 410.024 336.776C410.024 336.221 410.168 335.715 410.456 335.256C410.755 334.787 411.208 334.413 411.816 334.136C412.424 333.848 413.203 333.704 414.152 333.704C414.781 333.704 415.405 333.795 416.024 333.976C416.643 334.147 417.176 334.387 417.624 334.696L417.224 335.64C416.744 335.32 416.232 335.085 415.688 334.936C415.155 334.787 414.637 334.712 414.136 334.712C413.464 334.712 412.909 334.803 412.472 334.984C412.035 335.165 411.709 335.411 411.496 335.72C411.293 336.019 411.192 336.36 411.192 336.744C411.192 337.181 411.315 337.533 411.56 337.8C411.816 338.067 412.147 338.275 412.552 338.424C412.968 338.573 413.421 338.707 413.912 338.824C414.403 338.941 414.888 339.069 415.368 339.208C415.859 339.347 416.307 339.528 416.712 339.752C417.128 339.965 417.459 340.253 417.704 340.616C417.96 340.979 418.088 341.453 418.088 342.04C418.088 342.584 417.939 343.091 417.64 343.56C417.341 344.019 416.883 344.392 416.264 344.68C415.656 344.957 414.872 345.096 413.912 345.096ZM423.996 345.08C423.121 345.08 422.353 344.899 421.692 344.536C421.03 344.163 420.513 343.656 420.14 343.016C419.766 342.365 419.58 341.624 419.58 340.792C419.58 339.96 419.756 339.224 420.108 338.584C420.47 337.944 420.961 337.443 421.58 337.08C422.209 336.707 422.913 336.52 423.692 336.52C424.481 336.52 425.18 336.701 425.788 337.064C426.406 337.416 426.892 337.917 427.244 338.568C427.596 339.208 427.772 339.949 427.772 340.792C427.772 340.845 427.766 340.904 427.756 340.968C427.756 341.021 427.756 341.08 427.756 341.144H420.444V340.296H427.148L426.7 340.632C426.7 340.024 426.566 339.485 426.3 339.016C426.044 338.536 425.692 338.163 425.244 337.896C424.796 337.629 424.278 337.496 423.692 337.496C423.116 337.496 422.598 337.629 422.14 337.896C421.681 338.163 421.324 338.536 421.068 339.016C420.812 339.496 420.684 340.045 420.684 340.664V340.84C420.684 341.48 420.822 342.045 421.1 342.536C421.388 343.016 421.782 343.395 422.284 343.672C422.796 343.939 423.377 344.072 424.028 344.072C424.54 344.072 425.014 343.981 425.452 343.8C425.9 343.619 426.284 343.341 426.604 342.968L427.244 343.704C426.87 344.152 426.401 344.493 425.836 344.728C425.281 344.963 424.668 345.08 423.996 345.08ZM434.42 345.08C433.695 345.08 433.039 344.915 432.452 344.584C431.865 344.243 431.396 343.757 431.044 343.128C430.703 342.488 430.532 341.709 430.532 340.792C430.532 339.875 430.703 339.101 431.044 338.472C431.385 337.832 431.849 337.347 432.436 337.016C433.023 336.685 433.684 336.52 434.42 336.52C435.22 336.52 435.935 336.701 436.564 337.064C437.204 337.416 437.705 337.917 438.068 338.568C438.431 339.208 438.612 339.949 438.612 340.792C438.612 341.645 438.431 342.392 438.068 343.032C437.705 343.672 437.204 344.173 436.564 344.536C435.935 344.899 435.22 345.08 434.42 345.08ZM430.084 348.104V336.6H431.172V339.128L431.06 340.808L431.22 342.504V348.104H430.084ZM434.34 344.072C434.937 344.072 435.471 343.939 435.94 343.672C436.409 343.395 436.783 343.011 437.06 342.52C437.337 342.019 437.476 341.443 437.476 340.792C437.476 340.141 437.337 339.571 437.06 339.08C436.783 338.589 436.409 338.205 435.94 337.928C435.471 337.651 434.937 337.512 434.34 337.512C433.743 337.512 433.204 337.651 432.724 337.928C432.255 338.205 431.881 338.589 431.604 339.08C431.337 339.571 431.204 340.141 431.204 340.792C431.204 341.443 431.337 342.019 431.604 342.52C431.881 343.011 432.255 343.395 432.724 343.672C433.204 343.939 433.743 344.072 434.34 344.072Z" fill="black"/>
<path d="M463.72 345.096C462.877 345.096 462.093 344.957 461.368 344.68C460.653 344.392 460.029 343.992 459.496 343.48C458.973 342.957 458.563 342.355 458.264 341.672C457.976 340.979 457.832 340.221 457.832 339.4C457.832 338.579 457.976 337.827 458.264 337.144C458.563 336.451 458.973 335.848 459.496 335.336C460.029 334.813 460.653 334.413 461.368 334.136C462.083 333.848 462.867 333.704 463.72 333.704C464.563 333.704 465.341 333.848 466.056 334.136C466.771 334.413 467.389 334.808 467.912 335.32C468.445 335.832 468.856 336.435 469.144 337.128C469.443 337.821 469.592 338.579 469.592 339.4C469.592 340.221 469.443 340.979 469.144 341.672C468.856 342.365 468.445 342.968 467.912 343.48C467.389 343.992 466.771 344.392 466.056 344.68C465.341 344.957 464.563 345.096 463.72 345.096ZM463.72 344.04C464.392 344.04 465.011 343.928 465.576 343.704C466.152 343.469 466.648 343.144 467.064 342.728C467.491 342.301 467.821 341.811 468.056 341.256C468.291 340.691 468.408 340.072 468.408 339.4C468.408 338.728 468.291 338.115 468.056 337.56C467.821 336.995 467.491 336.504 467.064 336.088C466.648 335.661 466.152 335.336 465.576 335.112C465.011 334.877 464.392 334.76 463.72 334.76C463.048 334.76 462.424 334.877 461.848 335.112C461.272 335.336 460.771 335.661 460.344 336.088C459.928 336.504 459.597 336.995 459.352 337.56C459.117 338.115 459 338.728 459 339.4C459 340.061 459.117 340.675 459.352 341.24C459.597 341.805 459.928 342.301 460.344 342.728C460.771 343.144 461.272 343.469 461.848 343.704C462.424 343.928 463.048 344.04 463.72 344.04ZM472.902 342.824L472.934 341.368L478.166 336.6H479.558L475.862 340.136L475.222 340.68L472.902 342.824ZM472.006 345V333.128H473.142V345H472.006ZM478.518 345L475.014 340.632L475.75 339.752L479.91 345H478.518ZM484.271 345.08C483.482 345.08 482.874 344.867 482.447 344.44C482.021 344.013 481.807 343.411 481.807 342.632V334.744H482.943V342.568C482.943 343.059 483.066 343.437 483.311 343.704C483.567 343.971 483.93 344.104 484.399 344.104C484.901 344.104 485.317 343.96 485.647 343.672L486.047 344.488C485.823 344.691 485.551 344.84 485.231 344.936C484.922 345.032 484.602 345.08 484.271 345.08ZM480.303 337.544V336.6H485.503V337.544H480.303Z" fill="black"/>
<path d="M505.824 345V333.8H506.8L514.528 343.528H514.016V333.8H515.184V345H514.208L506.496 335.272H507.008V345H505.824ZM522.024 345.08C521.213 345.08 520.482 344.899 519.832 344.536C519.192 344.163 518.685 343.656 518.312 343.016C517.938 342.365 517.752 341.624 517.752 340.792C517.752 339.949 517.938 339.208 518.312 338.568C518.685 337.928 519.192 337.427 519.832 337.064C520.472 336.701 521.202 336.52 522.024 336.52C522.856 336.52 523.592 336.701 524.232 337.064C524.882 337.427 525.389 337.928 525.752 338.568C526.125 339.208 526.312 339.949 526.312 340.792C526.312 341.624 526.125 342.365 525.752 343.016C525.389 343.656 524.882 344.163 524.232 344.536C523.581 344.899 522.845 345.08 522.024 345.08ZM522.024 344.072C522.632 344.072 523.17 343.939 523.64 343.672C524.109 343.395 524.477 343.011 524.744 342.52C525.021 342.019 525.16 341.443 525.16 340.792C525.16 340.131 525.021 339.555 524.744 339.064C524.477 338.573 524.109 338.195 523.64 337.928C523.17 337.651 522.637 337.512 522.04 337.512C521.442 337.512 520.909 337.651 520.44 337.928C519.97 338.195 519.597 338.573 519.32 339.064C519.042 339.555 518.904 340.131 518.904 340.792C518.904 341.443 519.042 342.019 519.32 342.52C519.597 343.011 519.97 343.395 520.44 343.672C520.909 343.939 521.437 344.072 522.024 344.072ZM530.557 345L526.829 336.6H528.013L531.437 344.392H530.877L534.349 336.6H535.469L531.725 345H530.557Z" fill="black"/>
<path d="M555.824 345V333.8H560.384C561.579 333.8 562.624 334.04 563.52 334.52C564.427 334.989 565.131 335.645 565.632 336.488C566.133 337.331 566.384 338.301 566.384 339.4C566.384 340.499 566.133 341.469 565.632 342.312C565.131 343.155 564.427 343.816 563.52 344.296C562.624 344.765 561.579 345 560.384 345H555.824ZM557.008 343.976H560.32C561.312 343.976 562.171 343.784 562.896 343.4C563.632 343.005 564.203 342.467 564.608 341.784C565.013 341.091 565.216 340.296 565.216 339.4C565.216 338.493 565.013 337.699 564.608 337.016C564.203 336.333 563.632 335.8 562.896 335.416C562.171 335.021 561.312 334.824 560.32 334.824H557.008V343.976ZM572.371 345.08C571.496 345.08 570.728 344.899 570.067 344.536C569.405 344.163 568.888 343.656 568.515 343.016C568.141 342.365 567.955 341.624 567.955 340.792C567.955 339.96 568.131 339.224 568.483 338.584C568.845 337.944 569.336 337.443 569.955 337.08C570.584 336.707 571.288 336.52 572.067 336.52C572.856 336.52 573.555 336.701 574.163 337.064C574.781 337.416 575.267 337.917 575.619 338.568C575.971 339.208 576.147 339.949 576.147 340.792C576.147 340.845 576.141 340.904 576.131 340.968C576.131 341.021 576.131 341.08 576.131 341.144H568.819V340.296H575.523L575.075 340.632C575.075 340.024 574.941 339.485 574.675 339.016C574.419 338.536 574.067 338.163 573.619 337.896C573.171 337.629 572.653 337.496 572.067 337.496C571.491 337.496 570.973 337.629 570.515 337.896C570.056 338.163 569.699 338.536 569.443 339.016C569.187 339.496 569.059 340.045 569.059 340.664V340.84C569.059 341.48 569.197 342.045 569.475 342.536C569.763 343.016 570.157 343.395 570.659 343.672C571.171 343.939 571.752 344.072 572.403 344.072C572.915 344.072 573.389 343.981 573.827 343.8C574.275 343.619 574.659 343.341 574.979 342.968L575.619 343.704C575.245 344.152 574.776 344.493 574.211 344.728C573.656 344.963 573.043 345.08 572.371 345.08ZM580.715 345.08C580.022 345.08 579.366 344.984 578.747 344.792C578.128 344.589 577.643 344.339 577.291 344.04L577.803 343.144C578.144 343.4 578.582 343.624 579.115 343.816C579.648 343.997 580.208 344.088 580.795 344.088C581.595 344.088 582.171 343.965 582.523 343.72C582.875 343.464 583.051 343.128 583.051 342.712C583.051 342.403 582.95 342.163 582.747 341.992C582.555 341.811 582.299 341.677 581.979 341.592C581.659 341.496 581.302 341.416 580.907 341.352C580.512 341.288 580.118 341.213 579.723 341.128C579.339 341.043 578.987 340.92 578.667 340.76C578.347 340.589 578.086 340.36 577.883 340.072C577.691 339.784 577.595 339.4 577.595 338.92C577.595 338.461 577.723 338.051 577.979 337.688C578.235 337.325 578.608 337.043 579.099 336.84C579.6 336.627 580.208 336.52 580.923 336.52C581.467 336.52 582.011 336.595 582.555 336.744C583.099 336.883 583.547 337.069 583.899 337.304L583.403 338.216C583.03 337.96 582.63 337.779 582.203 337.672C581.776 337.555 581.35 337.496 580.923 337.496C580.166 337.496 579.606 337.629 579.243 337.896C578.891 338.152 578.715 338.483 578.715 338.888C578.715 339.208 578.811 339.459 579.003 339.64C579.206 339.821 579.467 339.965 579.787 340.072C580.118 340.168 580.475 340.248 580.859 340.312C581.254 340.376 581.643 340.456 582.027 340.552C582.422 340.637 582.779 340.76 583.099 340.92C583.43 341.069 583.691 341.288 583.883 341.576C584.086 341.853 584.187 342.221 584.187 342.68C584.187 343.171 584.048 343.597 583.771 343.96C583.504 344.312 583.11 344.589 582.587 344.792C582.075 344.984 581.451 345.08 580.715 345.08Z" fill="black"/>
<circle cx="462.5" cy="123.5" r="8.5" fill="#029153"/>
<defs>
<linearGradient id="paint0_linear_2293_12406" x1="309.5" y1="74" x2="309.5" y2="323" gradientUnits="userSpaceOnUse">
<stop stop-color="#06C270" stop-opacity="0.42"/>
<stop offset="1" stop-color="#06C270" stop-opacity="0"/>
</linearGradient>
</defs>
</svg>
