<svg width="24" height="25" viewBox="0 0 24 25" fill="none" xmlns="http://www.w3.org/2000/svg">
<path d="M20 16.375C18.75 16.375 17.55 16.175 16.43 15.805C16.2542 15.749 16.0664 15.7417 15.8868 15.784C15.7072 15.8263 15.5424 15.9165 15.41 16.045L13.21 18.245C10.3712 16.8012 8.06378 14.4938 6.62 11.655L8.82 9.445C8.95245 9.31934 9.04632 9.15852 9.0906 8.9814C9.13488 8.80428 9.12773 8.6182 9.07 8.445C8.69065 7.29306 8.49821 6.0878 8.5 4.875C8.5 4.325 8.05 3.875 7.5 3.875H4C3.45 3.875 3 4.325 3 4.875C3 14.265 10.61 21.875 20 21.875C20.55 21.875 21 21.425 21 20.875V17.375C21 16.825 20.55 16.375 20 16.375ZM19 12.875H21C21 10.4881 20.0518 8.19887 18.364 6.51104C16.6761 4.82321 14.3869 3.875 12 3.875V5.875C15.87 5.875 19 9.005 19 12.875ZM15 12.875H17C17 10.115 14.76 7.875 12 7.875V9.875C13.66 9.875 15 11.215 15 12.875Z" fill="#FF7733"/>
</svg>
