<svg width="22" height="16" viewBox="0 0 22 16" fill="none" xmlns="http://www.w3.org/2000/svg">
<path d="M2 16C1.45 16 0.979002 15.804 0.587002 15.412C0.195002 15.02 -0.000664969 14.5493 1.69779e-06 14V4C1.69779e-06 3.71667 0.0960017 3.479 0.288002 3.287C0.480002 3.095 0.717335 2.99934 1 3C1.28333 3 1.521 3.096 1.713 3.288C1.905 3.48 2.00067 3.71734 2 4V14H18C18.2833 14 18.521 14.096 18.713 14.288C18.905 14.48 19.0007 14.7173 19 15C19 15.2833 18.904 15.521 18.712 15.713C18.52 15.905 18.2827 16.0007 18 16H2ZM6 12C5.45 12 4.979 11.804 4.587 11.412C4.195 11.02 3.99934 10.5493 4 10V2C4 1.45 4.196 0.979002 4.588 0.587002C4.98 0.195002 5.45067 -0.000664969 6 1.69779e-06H20C20.55 1.69779e-06 21.021 0.196001 21.413 0.588001C21.805 0.980001 22.0007 1.45067 22 2V10C22 10.55 21.804 11.021 21.412 11.413C21.02 11.805 20.5493 12.0007 20 12H6ZM8 10C8 9.45 7.804 8.979 7.412 8.587C7.02 8.195 6.54934 7.99934 6 8V10H8ZM18 10H20V8C19.45 8 18.979 8.196 18.587 8.588C18.195 8.98 17.9993 9.45067 18 10ZM13 9C13.8333 9 14.5417 8.70833 15.125 8.125C15.7083 7.54167 16 6.83334 16 6C16 5.16667 15.7083 4.45833 15.125 3.875C14.5417 3.29167 13.8333 3 13 3C12.1667 3 11.4583 3.29167 10.875 3.875C10.2917 4.45833 10 5.16667 10 6C10 6.83334 10.2917 7.54167 10.875 8.125C11.4583 8.70833 12.1667 9 13 9ZM6 4C6.55 4 7.021 3.804 7.413 3.412C7.805 3.02 8.00067 2.54934 8 2H6V4ZM20 4V2H18C18 2.55 18.196 3.021 18.588 3.413C18.98 3.805 19.4507 4.00067 20 4Z" fill="#B7C0CD"/>
</svg>
