<svg width="17" height="12" viewBox="0 0 17 12" fill="none" xmlns="http://www.w3.org/2000/svg">
<path d="M1.75 12C1.3375 12 0.984251 11.853 0.690251 11.559C0.396251 11.265 0.249501 10.912 0.250001 10.5V3C0.250001 2.7875 0.322001 2.60925 0.466001 2.46525C0.610001 2.32125 0.788001 2.2495 1 2.25C1.2125 2.25 1.39075 2.322 1.53475 2.466C1.67875 2.61 1.7505 2.788 1.75 3V10.5H13.75C13.9625 10.5 14.1408 10.572 14.2848 10.716C14.4288 10.86 14.5005 11.038 14.5 11.25C14.5 11.4625 14.428 11.6408 14.284 11.7848C14.14 11.9288 13.962 12.0005 13.75 12H1.75ZM4.75 9C4.3375 9 3.98425 8.853 3.69025 8.559C3.39625 8.265 3.2495 7.912 3.25 7.5V1.5C3.25 1.0875 3.397 0.734251 3.691 0.440251C3.985 0.146251 4.338 -0.000498727 4.75 1.27335e-06H15.25C15.6625 1.27335e-06 16.0158 0.147001 16.3098 0.441001C16.6038 0.735001 16.7505 1.088 16.75 1.5V7.5C16.75 7.9125 16.603 8.26575 16.309 8.55975C16.015 8.85375 15.662 9.0005 15.25 9H4.75ZM6.25 7.5C6.25 7.0875 6.103 6.73425 5.809 6.44025C5.515 6.14625 5.162 5.9995 4.75 6V7.5H6.25ZM13.75 7.5H15.25V6C14.8375 6 14.4843 6.147 14.1903 6.441C13.8963 6.735 13.7495 7.088 13.75 7.5ZM10 6.75C10.625 6.75 11.1563 6.53125 11.5938 6.09375C12.0313 5.65625 12.25 5.125 12.25 4.5C12.25 3.875 12.0313 3.34375 11.5938 2.90625C11.1563 2.46875 10.625 2.25 10 2.25C9.375 2.25 8.84375 2.46875 8.40625 2.90625C7.96875 3.34375 7.75 3.875 7.75 4.5C7.75 5.125 7.96875 5.65625 8.40625 6.09375C8.84375 6.53125 9.375 6.75 10 6.75ZM4.75 3C5.1625 3 5.51575 2.853 5.80975 2.559C6.10375 2.265 6.2505 1.912 6.25 1.5H4.75V3ZM15.25 3V1.5H13.75C13.75 1.9125 13.897 2.26575 14.191 2.55975C14.485 2.85375 14.838 3.0005 15.25 3Z" fill="#FF7733"/>
</svg>
