<svg width="50" height="50" viewBox="0 0 50 50" fill="none" xmlns="http://www.w3.org/2000/svg">
<path fill-rule="evenodd" clip-rule="evenodd" d="M25 4.16669C13.5 4.16669 4.16669 13.5 4.16669 25C4.16669 36.5 13.5 45.8334 25 45.8334C36.5 45.8334 45.8334 36.5 45.8334 25C45.8334 13.5 36.5 4.16669 25 4.16669ZM38.25 35.0625C35.2709 31.4375 28.0417 30.2084 25 30.2084C21.9584 30.2084 14.7292 31.4375 11.75 35.0625C9.62502 32.2709 8.33335 28.7917 8.33335 25C8.33335 15.8125 15.8125 8.33335 25 8.33335C34.1875 8.33335 41.6667 15.8125 41.6667 25C41.6667 28.7917 40.375 32.2709 38.25 35.0625ZM17.7084 19.7917C17.7084 15.75 20.9584 12.5 25 12.5C29.0417 12.5 32.2917 15.75 32.2917 19.7917C32.2917 23.8334 29.0417 27.0834 25 27.0834C20.9584 27.0834 17.7084 23.8334 17.7084 19.7917Z" fill="#17345F"/>
</svg>
